<?xml version="1.0" encoding="UTF-8"?>
<svg id="Camada_1" data-name="Camada 1" xmlns="http://www.w3.org/2000/svg" viewBox="0 0 1417.32 595.7">
  <path d="M508.45,22.96c25.61-8.1,51.9-17.59,79.22-15.11,6.47.45,14.04,3.51,15.74,10.44,2.09,5.96-1.06,11.86-3.79,17.01-5.76,10.03-12.57,19.43-19.71,28.52-14.57,18.44-31.08,35.46-49.7,49.85-2.27,2.09-5.27.77-7.58-.46,2.34-2.97,4.99-5.7,7.86-8.18,22.37-19.72,42.95-41.73,59.27-66.78,3.08-5.24,6.66-10.66,7-16.89-2.13-4.53-7.4-6.29-12.05-6.7-15.33-1.27-30.56,1.89-45.33,5.68-36.26,9.3-70.7,24.37-104.36,40.51-19.31,9.63-38.49,19.52-57.08,30.49-22.19,12.54-44,25.77-64.92,40.34-22.28,14.39-43.12,30.83-63.6,47.63-26.18,21.6-51.48,44.4-74.04,69.8-11.04,12.87-21.88,26.24-29.17,41.65-4.4,9.24-6.63,20.26-2.9,30.12,2.89,5.65,8.97,8.99,15.05,10.11,16.77,3.53,33.79-1.04,49.87-5.7,28.1-8.85,55.35-20.15,82.27-32.1,21.01-8.89,41.6-18.75,62.33-28.27,10.01-5.14,20.16-9.99,30.31-14.83,14.42-7.68,29.25-14.55,43.59-22.37,8.03-4.2,16.2-8.14,24.24-12.33,20.51-11.07,41.67-20.88,61.88-32.5,8.36-4.94,18.15-7.93,24.74-15.43,1.71.54,4.49-.3,5.16,1.89,1.24,2.25-.74,4.49-1.6,6.49-10.63,19.08-21.85,37.83-32.68,56.8-25.18,44.78-48.08,90.77-71.03,136.72-16.26,32.95-32.14,66.1-48.68,98.93-10.23,20.32-20.21,40.76-30.5,61.06-8.44,17.04-16.77,34.15-26.02,50.78-1.65,2.78-2.95,6.05-5.65,7.98-1.66.23-3.35.13-5.01.13.65-1.92,1.32-3.85,2.35-5.58,8.94-14.79,16.33-30.42,24.01-45.87,16.22-32.36,32.41-64.74,48.61-97.11,14.72-29.1,28.58-58.63,43.1-87.84,4.1-8.58,9.06-16.72,12.86-25.45,22.18-44.17,45.14-87.97,70.29-130.53,2.88-5.24,6.03-10.34,8.52-15.78-7.53,3.25-14.56,7.48-21.83,11.24-16.19,8.43-32.47,16.66-48.67,25.05-28.71,15.14-57.6,29.95-86.65,44.44-37.78,18.06-75.65,35.97-114.34,52.01-19.91,8.23-40.11,15.9-60.86,21.75-13.99,3.1-28.61,6.21-42.87,3.01-8.92-2.12-17.44-8.2-20.17-17.27-3.67-11.85.06-24.52,5.6-35.17,6.91-13.73,16.39-25.97,26.47-37.5,21.96-25.29,47.2-47.49,72.76-69.06,35.47-30.05,73.86-56.56,113.86-80.21,48.74-29.91,100.04-55.9,153.85-75.4Z"/>
  <path d="M618.06,222.17c3.04-2.16,6.38-4.68,10.26-4.75,4.18.82,4.88,5.98,3.52,9.35-4.34,11.75-12.7,21.33-20.8,30.65-6.62,7.81-13.93,14.99-21.66,21.7-3.32,2.88-6.9,5.5-9.81,8.84-5.89,6.62-10.34,14.39-13.9,22.46-1.27,2.56-1.03,5.45-.85,8.21,8.61-1.69,16.07-6.52,23.22-11.36,7.21-4.55,13.75-10.03,20.93-14.62,5.67-3.53,8.23-10.04,12.84-14.66,4.19-4.35,7.36-9.65,12.01-13.56,2.98-3.15,8.38,1.61,6.41,5.13-2.84,6.41-9.35,9.98-12.97,15.85-2.8,4.59-7.13,7.92-10.27,12.23-4.14,5.56-8.99,10.93-10.74,17.82,6.48-.44,11.95-4.1,17.67-6.74,6.13-2.92,11.71-6.84,17.7-10.03,7.06-3.82,10.81-11.66,17.9-15.44,3.26-1.56,7.55-3.15,10.62-.31,4.93,3.61,4.36,10.53,2.49,15.65,7.79-1.11,15-4.76,21.14-9.59,2.81-2.28,5.67.98,7.92,2.52,4.77-3.31,9.7-6.68,15.53-7.79,1.03,2.05,2.38,4.22,1.75,6.63-1.29,6.81-6.57,12.3-6.59,19.47,5.98.02,11.75-1.65,17.43-3.33,21.7-5.73,43.79-9.86,66-12.98,13.6-2.47,27.48-2.59,41.25-2.05,2.94.32,7.04.22,7.82,3.87-9.19,1.11-18.48.92-27.67,2.09-28.84,1.78-57.32,7.34-85.1,15.14-6.28,1.62-12.54,4.22-19.15,3.71-4.32-.14-7.78-4.18-8.12-8.35.7-5.04,3.63-9.37,5.89-13.82-3.66,2.2-7.29,4.46-10.8,6.86-7.96,5.05-12.68,13.82-20.94,18.52-1.14-1.44-2.76-2.68-3.19-4.54,1.64-5.71,5.73-10.23,9.21-14.91-4.54,2.03-9,4.2-13.65,5.95-3.43,1.15-5.52,4.26-7.93,6.75-3.74,4.11-8.84,7.39-14.47,7.82-3.78.38-7.36-2.26-8.75-5.67-1.03-2.78-.12-5.74.31-8.54-6.68,4.08-13.77,7.41-20.75,10.94-4.8,2.27-9.66,5.41-15.18,5.08-3.25-.09-5.58-3.51-5.71-6.5.95-4.57,3.62-8.52,5.76-12.59-11.57,7.17-21.95,16.6-34.98,21.13-4.05,1.55-8.95-.14-11.24-3.76-1.03-5.32-.21-10.88,2.52-15.58-8.24,7.78-15.77,16.9-26.46,21.43-3.12,1.61-7.04.6-9.56-1.63-2-2.23-1.34-5.39-.84-8.03,1.59-7.38,5.62-13.88,8.58-20.74-5.17,3.72-10.88,6.81-15.29,11.5-1.9,2.03-4.22,3.57-6.59,4.99-.73-1.4-1.44-2.82-2.13-4.22-5.64,4.93-10.61,10.76-17.06,14.66-1.47,1.11-3.2-.22-4.18-1.32.23-2.73,3.02-4.14,4.62-6.09,5.56-6.29,11.87-11.84,18.34-17.18,2.47-2.03,5.22-3.68,8.04-5.17.16,1.91.32,3.81.48,5.73,5.7-4.57,11.22-9.61,18.01-12.52,2.45-.17,5.23,1.36,6.03,3.77-.4,2.38-1.66,4.48-2.73,6.61-4.18,7.91-8.67,15.9-10.08,24.87,7.11-3.08,12.48-8.8,18.28-13.74,8.4-7.7,16.81-15.44,24.37-23.97,5.32-5.17,8.37-12.04,12.14-18.31,9.19-15.77,18.89-31.8,33.17-43.54M619.19,230.02c-6.54,7.01-13.15,14.06-18.22,22.24-4.43,7.01-8.9,14-13.46,20.93,4.83-4.66,9.95-9.03,14.39-14.09,9.65-10.72,19.5-21.79,25.02-35.31-2.87,1.68-5.51,3.75-7.73,6.23M658.78,296.22c-.21,2.38.87,6.27,4.01,5.53,4.23-3.19,6.02-9.23,3.86-14.16-3.28,2.05-7.32,4.42-7.87,8.62M652.29,300.91c-1.76,2.97-3.91,5.83-4.83,9.21-.49,1.55.19,3.16,1.49,4.08,4.59-.67,7.81-4.29,11.15-7.16-1.6-.37-3.47-.17-4.82-1.15-1.23-1.52-2.05-3.29-2.98-4.97Z"/>
  <path d="M924.9,40.01c.61-3.08,3.87-3.48,6.41-4.1.12,5.42-2.7,10.27-3.89,15.44-5.52,20.16-10.18,40.54-15.16,60.83-4.77,18.9-8.72,38-13.8,56.83-10.69,42.6-20.96,85.3-31.84,127.86-3.98,13.47-7.07,27.18-10.46,40.81-7.98,29.3-13.55,59.28-23.11,88.15-.97,3.25-.78,6.69-1.52,9.98-1.16,1.1-2.56,1.92-3.85,2.83-.43-.48-1.3-1.46-1.73-1.94,1.3-13.97.13-27.97-.16-41.94-1.03-21.65-1.21-43.34-2.87-64.96-.33-16.12-.87-32.21-1.44-48.32-.88-12.79-.63-25.62-1.63-38.4-.35-11.47-.17-22.97-1.16-34.41-.04-19.71-2.3-39.47-.17-59.14-.31-23.89-1.85-47.77-2-71.66-10.04,39.93-19.07,80.12-29.33,120-6.53,26.58-13.29,53.1-19.71,79.71-10.28,38.88-20.04,77.89-29.55,116.95-3.43,13.66-6.64,27.41-11.42,40.66-.55,3.02-4.01,3.02-6.32,3.8,0-4.75,2.12-9.02,3.38-13.49,5.59-19.84,10.04-39.97,15.14-59.94,5.47-22.98,10.61-46.04,16.74-68.85,6.25-25.81,12.76-51.56,19.1-77.35,5.08-21.18,10.62-42.24,16.24-63.28,6.85-27.99,13.87-55.95,20.82-83.92,1.48-6.37,3.93-12.47,5.01-18.94.33-2.61,1.9-4.76,3.32-6.88,1.69-.34,3.39-.7,5.11-1.03-.32,5.35-3.06,10.25-2.77,15.66.07,22.97,1.24,45.92,2.13,68.87,2.43,62.03,4.22,124.09,6.16,186.13-.63,11.82-.43,23.67-.64,35.5,1.18,19.36,2.05,38.76,2.17,58.17,5.16-23.24,11.52-46.2,16.73-69.43,9.1-38.67,19.12-77.12,28.53-115.72,4.99-19.75,9.57-39.61,14.94-59.26,5.85-21.22,10.69-42.68,16.18-63.98,5.26-20.47,9.52-41.24,16.41-61.25Z"/>
  <path d="M1099.04,327.43c8.28-6.99,14.75-15.8,22.81-22.99,2.06,1.86,4.35,3.57,5.86,5.96-.49,3.82-3.42,6.81-4.72,10.39-2.85,7.29-5.55,14.77-6.22,22.62,16.51-6.42,30.27-17.93,45.35-26.94,5.79-3.74,13.06-5.03,19.75-3.27,2.12,1.47,2.94,4.23,2.99,6.7-1.12,4.91-4.65,9.37-3.81,14.65.98,2.32,3.82,2.55,6.01,2.68,8.55.39,16.97-1.38,25.43-2.3,53.64-7.17,107.43-15.2,161.68-14.85,7.69.32,15.56-.22,23.01,2.09.27,1.29.54,2.58.83,3.88-13.56.97-27.17.89-40.73,1.92-20.93,1.49-41.82,3.5-62.73,5.29-25.68,2.51-51.21,6.28-76.84,9.1-11.45.95-22.94,3.36-34.43,1.76-5.79-.97-9.58-6.9-8.88-12.59-5.51,4.95-11.57,9.45-18.47,12.25-2.76,1.02-6.37,1.59-8.53-.9-2.36-1.96-2.07-5.19-1.9-7.93-5.89,4.25-12.11,8.01-18.49,11.46-3.08,1.56-6.35,3.03-9.85,3.12-3.36-.55-6.41-3.42-6.63-6.9-.6-6.95,2.27-13.46,4.05-20.03-2.34,1.75-4.58,3.64-6.56,5.79-6.84,7.54-15.47,13.19-24.24,18.2-3.45,1.99-9.55,1.3-10.68-3.08-1.23-4.23,0-8.62.97-12.77-6.2,5.37-13.49,9.22-20.76,12.88-3.73,1.68-7.79,3.56-11.98,2.79-2.88-.46-5.24-2.27-7.52-3.96-.31-1.99-.62-3.98-.91-5.97-7.45,4.86-15.8,9.6-25.01,9.14-3.58.1-6.95-2.57-7.77-6.04-.44-2.38-.2-4.81-.14-7.21-6.14,5.33-12.71,10.33-20.22,13.59-1.99.77-4.21,1.01-6.29.53-2.26-.97-3.8-3.02-5.51-4.7.11-1.5.23-2.98.34-4.48-7.76,5.62-15.39,11.49-22.45,17.97-12.31,12.7-20.63,28.55-28.87,44.02-13.46,26.29-26.63,53.28-46.56,75.4-5.69,6.19-11.74,12.16-18.63,17.01-4.26,2.91-10.21,5.04-15.05,2.31-3.9-3.01-2.11-8.53-1.47-12.6,3.39-14.34,11.02-27.28,19.08-39.47,6.77-9.58,13.17-19.47,20.82-28.38,9.23-10.39,18.29-21,28.88-30.06,4.92-4.02,9.07-9.15,14.95-11.83,3.28-1.77,7.44-2.84,9.19-6.5,6.57-11.46,12.54-23.31,16.97-35.77-3.85,3.6-7.34,7.72-12,10.34-3.5,1.92-6.73,4.97-10.94,4.98-3.37.05-5.53-2.86-7.63-5.04.71-3.66,1.59-7.37,3.95-10.36-4.95,2.07-9.86,4.27-14.6,6.81-3.75,1.94-6.43,5.32-9.66,7.95-3.86,3.23-8.24,6.18-13.26,7.14-5.71,1.05-11.69-4.83-10.06-10.59,1.41-5.77,5.2-10.51,8.75-15.13,3.51-4.69,8.44-7.95,13.02-11.49,3.58-2.88,8.42-3.65,12.88-3.14,5.42,3.49,5.95,11.64,2.66,16.8,7.88-3.71,15.66-7.67,22.85-12.61,3-2.26,6.83-2.27,10.38-2.85.03,1.74.7,3.66-.09,5.3-2.72,3.53-6.95,5.44-9.93,8.72-3.42,3.8-6.93,7.65-8.96,12.42,12.22-6.42,20.66-17.68,31.36-26.06,2.24,1.58,5.92,3.91,3.83,7.09-4.59,8.72-8.23,17.92-11.71,27.13,4.2-3.04,7.8-6.82,11.95-9.91,5.82-4.68,12.15-8.78,17.26-14.28,3.56-3.75,7.43-7.59,12.5-9.18,2.5-1.19,3.99,1.88,5.6,3.24-3.65,6.24-10.44,9.57-14.69,15.31-2.07,2.53-3.27,5.6-4.23,8.69,6.33-1.95,11.56-6.14,16.73-10.1,4.74-3.78,9.54-7.48,13.85-11.75,1.46-1.48,3.6-2.84,5.72-1.8,2.31,1.37,2.23,4.54.94,6.58-2.66,4.65-5.19,9.47-5.75,14.89,2.04.46,4.19,1.17,6.26.34,8.72-2.64,16.89-6.97,24.33-12.2,5.87-5.19,10.28-12.66,18.2-15.01,2.88-1.1,5.78.95,7.1,3.44-2.27,7.01-7.99,12.53-14.64,15.54-3.47,1.59-7.11,5.94-4.82,9.75,12.45-4.04,23.52-11.41,33.99-19.14,4.31-2.91,6.33-7.99,10.48-11.11,1.34,1.09,3.77,1.62,3.76,3.76.39,2.76-.85,5.39-2.28,7.65-3.81,5.86-8.22,11.68-9.48,18.72,7.98-2.02,14.07-7.79,20.28-12.83M893.62,331.43c.81.24,2.44.69,3.26.93,4.36-3.8,7.5-9.33,6.31-15.29-6.29,1.8-9.46,8.19-9.57,14.36M1048.09,324.24c2.57-1.68,4.82-3.84,6.47-6.46-2.55,1.73-4.7,3.96-6.47,6.46M1152.1,338.18c9.92-4.14,18.98-11.14,24-20.81-9.61,4.68-18.88,11.14-24,20.81M877.24,344.15c6.3,1.48,10.95-3.63,15.59-6.93-1.24-.63-2.51-1.16-3.67-1.9-1.62-1.78-1.83-4.36-2.57-6.55-3.67,4.76-7.77,9.42-9.34,15.38M907.53,387.76c-14.85,13.8-29.1,28.44-40.6,45.21-9.24,13.39-18.48,27.04-24.46,42.26-1.63,4.76-3.79,9.89-1.93,14.93,10.94-1.92,18.33-11.12,25.39-18.88,18.19-19.82,30.42-44.09,42.21-68.02,4-8.58,8.94-16.68,12.63-25.4-5.4,1.83-9.16,6.2-13.24,9.91Z"/>
  <path d="M524.2,353.89c20.47-.23,40.93-.75,61.4-.31,32.19-.4,64.38.59,96.56,1.36,34.1.79,68.14,3.04,102.21,4.55,11.88-.31,23.69,1.03,35.45,2.46,25.35,1.6,50.72,3.22,75.95,6.29,12.81.85,25.53,2.53,38.29,3.87,8.23,1.01,16.53,1.19,24.76,2.3,15.37,1.98,30.79,3.69,46.11,6.11,22.94,3.81,46.15,5.75,68.99,10.26,11.89,2.31,24.78,3.99,34.42,12.01-.27.6-.78,1.8-1.03,2.4-21.51-7.55-44.29-10.18-66.78-13.15-12.81-2.01-25.69-3.49-38.52-5.29-20.93-3.21-41.92-6.11-63.03-7.87-74.89-8.2-150.04-14.21-225.37-16.7-62.63-2.52-125.32-3.41-187.99-2.37-22.01.14-44,1.5-65.99,2.06-26.94,1.28-53.85,2.94-80.78,4.43-22.67.95-45.26,3.3-67.87,5.22-17.04,1.63-34.13,2.77-51.1,5.17-40.64,4.25-81.1,10.44-121.12,18.71-31.75,6.76-64.07,13.93-92.69,29.88-7.94,4.22-14.68,10.25-21.81,15.65-1.67,1.58-3.51-.12-4.93-1.09,3.9-6.45,9.55-11.64,15.89-15.63,8.66-5.43,17.64-10.43,27.14-14.26,13.72-5.18,27.62-9.95,41.85-13.53,18.9-5.01,38.24-8,57.32-12.22,20.94-3.25,41.78-7.27,62.85-9.64,46.98-6.27,94.26-9.97,141.51-13.54,35.83-1.87,71.62-4.4,107.48-5.69,16.96.04,33.89-1.36,50.84-1.46Z"/>
  <path d="M536.38,278.74c1.1-2.07,2.21-4.14,3.31-6.21,1.79,1.02,4.16,1.57,5.22,3.52,1.37,2.25-.73,5.5-3.3,5.42-2.15.16-3.64-1.6-5.23-2.74Z"/>
  <path d="M1096.61,283.58c2.68-2.53,8.05.99,6.45,4.44-1.71,3.6-3.78,7.22-6.85,9.84-2,1.86-4.89,1.49-7.37,1.59.25-6.07,3.39-11.78,7.78-15.87Z"/>
</svg>