<?xml version="1.0" encoding="UTF-8"?>
<svg id="Camada_1" data-name="Camada 1" xmlns="http://www.w3.org/2000/svg" viewBox="0 0 360 360">
  <path d="M319.88,6.83c4.41-2.92,9.95-4.9,15.2-3.32,4.32,2.8,6.04,8.15,6.16,13.06.8,13.12-2.52,26.23-8.15,38.01-12.28,20.29-29.64,37.05-48.63,51.05,6.71-3.46,13.22-7.3,20.08-10.45-1.22,3.55-4.4,5.71-7.13,8.01-19.57,16-39.7,31.31-59.97,46.44-1.8,1.36-3.44,2.92-4.99,4.57,4.93-.95,9.57-2.88,14.34-4.38-24.84,16.17-50.35,31.33-76.61,45.06-15.78,8.02-31.94,16.35-49.61,18.86-7.45,7.87-14.73,15.94-21.38,24.51-1.25,1.25-.84,4.02,1.13,4.38,3.43,1.63,6.99,2.94,10.56,4.25-3.43,8.1-8.27,15.5-12.22,23.35-1.2,1.58-1.53,4.13-3.57,4.9-12.43-1.61-24.67-7.9-31.63-18.6,7.26-8.35,13.95-17.17,20.94-25.75,3.11,2.5,5.87,5.47,9.18,7.71.48-.16,1.45-.45,1.94-.61,4.43-9.84,9.82-19.24,16.2-27.94,2.44-3.11,2.02-7.34,3.1-10.95,3.39-12.73,10.87-23.84,18.43-34.46,9.35-13.67,20.36-26.07,30.84-38.87.63,1.7,1.39,3.35,2.3,4.94,22.6-26.92,48.39-50.96,74.23-74.69,7.85-6.18,14.5-13.83,22.93-19.25-4.11,7.34-8.73,14.44-12.14,22.15,5.97-5.47,11.29-11.67,17.99-16.35,16.7-12.04,33.21-24.42,50.46-35.66M268.71,66.77c-33.16,24.35-65.46,49.97-95.47,78.14-18.75,18.25-37.96,36.74-50.93,59.78,3.64-3.58,6.76-7.63,9.89-11.67,13.33-16.78,28.81-31.69,44.23-46.53,38.7-35.82,80.72-67.79,123.16-99.02,5.33-3.96,11.11-7.4,15.89-12.04-16.09,9.68-31.6,20.29-46.77,31.35Z" fill="#fff"/>
  <path d="M51.03,279.04c1.53-1.39,3.11-2.71,4.71-4.04,5.13,6.46,11.43,11.93,19.04,15.27-6.55,14.16-12.15,28.73-18.08,43.17-9.96,3.11-19.61,7.65-27.36,14.77-3.14,2.67-5.88,7.32-10.7,5.3,2.49-9.84,5.1-19.97,3.68-30.2-.16-3.13-1.61-6.85.99-9.38,9.06-11.78,17.78-23.87,27.73-34.88M35.24,318.09c-2.66,2.77-1.58,6.49-.66,9.74-4.8,8.02-9.92,15.94-13.7,24.48,9.57-6.69,11.34-21.74,23.26-25.48.53-2.46,1.2-5.07.11-7.46-2.08-2.71-6.16-2.6-9.01-1.28Z" fill="#fff"/>
  <g id="_343434ff" data-name="#343434ff">
    <path d="M52.1,261.33c2.61-3.38,7.23-4.75,11.37-4.79,6.96,10.7,19.19,16.99,31.63,18.6.53,2.91,1.35,5.93.66,8.88-.45,4.13-5.36,4.07-8.43,5.16-4.1.48-8.57,2.5-12.54,1.08-7.6-3.33-13.91-8.81-19.04-15.27-1.6,1.33-3.18,2.64-4.71,4.04,3.64-5.47-.88-11.87,1.06-17.71Z" fill="#afafaf"/>
  </g>
</svg>