<?xml version="1.0" encoding="UTF-8"?>
<svg id="Camada_1" data-name="Camada 1" xmlns="http://www.w3.org/2000/svg" viewBox="0 0 500 500">
  <g id="EDITÁVEL">
    <g>
      <path d="M163.64,46.14c3.18-1.37,6.38-2.17,9.59-2.39,3.21-.22,6.29.19,9.25,1.24,2.96,1.05,5.68,2.78,8.17,5.19,2.49,2.41,4.59,5.61,6.31,9.59l10.88,25.26-10.47,4.51-11.27-26.18c-.95-2.2-2.11-4.01-3.48-5.42-1.37-1.41-2.87-2.41-4.51-3.01-1.64-.6-3.34-.85-5.11-.74-1.77.11-3.54.55-5.32,1.31-1.71.74-3.23,1.72-4.56,2.94-1.32,1.22-2.31,2.63-2.97,4.22-.66,1.59-.96,3.37-.91,5.35.05,1.97.55,4.06,1.5,6.27l11.27,26.18-10.38,4.47-10.88-25.26c-1.71-3.98-2.59-7.7-2.63-11.17-.04-3.47.56-6.63,1.79-9.48,1.24-2.85,3.04-5.37,5.4-7.55,2.36-2.18,5.14-3.96,8.32-5.33Z" fill="#7560fd"/>
      <path d="M253.48,56.2l-40.13,4.65c.5,2.56,1.35,4.69,2.55,6.4,1.2,1.71,2.6,3.07,4.2,4.09,1.59,1.02,3.32,1.71,5.17,2.07,1.85.36,3.67.43,5.46.22,2.85-.33,5.42-1.3,7.72-2.91,2.3-1.61,3.71-3.65,4.22-6.13l11.61-1.44c-.33,2.93-1.17,5.57-2.5,7.94-1.34,2.37-3.01,4.41-5.03,6.12-2.02,1.71-4.31,3.1-6.87,4.17-2.56,1.07-5.23,1.76-8.01,2.08-3.31.38-6.62.21-9.92-.51s-6.34-2.05-9.12-3.98c-2.77-1.93-5.14-4.51-7.09-7.74-1.95-3.23-3.19-7.13-3.72-11.7-.52-4.5-.23-8.5.88-11.98,1.11-3.48,2.75-6.49,4.94-9.03,2.19-2.53,4.76-4.53,7.71-5.98,2.95-1.45,6.05-2.36,9.3-2.74,3.18-.37,6.34-.19,9.47.51,3.14.71,6,1.99,8.6,3.84,2.59,1.85,4.8,4.26,6.62,7.24,1.82,2.98,2.97,6.55,3.46,10.72l.47,4.07ZM241.59,49.12c-1.48-3.52-3.67-6.02-6.55-7.5-2.89-1.48-5.86-2.04-8.9-1.69-3.05.35-5.81,1.58-8.28,3.68s-4.06,5.04-4.77,8.81l28.51-3.3Z" fill="#7560fd"/>
      <path d="M292.32,59.82c1.08.85,1.91,1.85,2.49,3,.59,1.15,1.35,2.77,2.29,4.89l8.53,20.77-13.22-2.18-7.64-19.4c-.47-1.23-.97-2.12-1.48-2.68-.52-.56-1.4-.94-2.65-1.15-1.25-.21-2.23-.13-2.93.23-.7.36-1.43,1.01-2.2,1.97l-13.49,16.02-13.32-2.2,14.85-16.91c1.5-1.71,2.73-3.01,3.69-3.9.96-.89,2.08-1.56,3.38-2.03-1.08-.85-1.92-1.87-2.54-3.05-.62-1.18-1.36-2.82-2.23-4.93l-8.63-20.78,13.32,2.2,7.62,19.5c.47,1.23.97,2.1,1.49,2.63.52.53,1.41.89,2.66,1.1,1.25.21,2.19.14,2.82-.19.63-.33,1.4-1,2.31-2l13.49-16.02,13.22,2.18-14.75,16.92c-1.57,1.7-2.81,3.02-3.74,3.94-.93.93-2.04,1.62-3.33,2.08Z" fill="#7560fd"/>
      <path d="M356.92,85.9l-11.36,23.5-10.17-4.92,3.7-7.65c-3.01,2.1-6.27,3.15-9.75,3.17-3.49.02-6.85-.76-10.09-2.33-2.7-1.31-5.15-3.12-7.36-5.45-2.21-2.33-3.9-5.03-5.07-8.12-1.17-3.08-1.69-6.46-1.54-10.13.14-3.67,1.19-7.51,3.13-11.54,1.97-4.08,4.39-7.32,7.25-9.71,2.86-2.39,5.92-4.04,9.17-4.95,3.25-.91,6.58-1.17,9.99-.78,3.4.39,6.64,1.32,9.7,2.8,3,1.45,5.71,3.39,8.13,5.82,2.42,2.43,4.28,5.2,5.59,8.31,1.31,3.11,1.91,6.53,1.81,10.26-.1,3.73-1.14,7.63-3.11,11.71ZM325.66,89c2.04.99,4.1,1.5,6.19,1.55,2.09.05,4.07-.29,5.94-1.02,1.87-.72,3.58-1.82,5.14-3.29,1.56-1.47,2.84-3.22,3.82-5.26.99-2.04,1.56-4.11,1.73-6.22.17-2.1-.04-4.13-.62-6.07-.58-1.95-1.53-3.72-2.86-5.33-1.33-1.61-3.02-2.9-5.06-3.89-2.04-.99-4.1-1.5-6.19-1.55-2.09-.05-4.08.31-5.96,1.06s-3.6,1.85-5.14,3.29c-1.55,1.44-2.81,3.18-3.8,5.22-.99,2.04-1.57,4.13-1.75,6.26-.18,2.13.02,4.16.62,6.07.59,1.92,1.55,3.68,2.89,5.28,1.33,1.61,3.02,2.9,5.06,3.89Z" fill="#7560fd"/>
    </g>
    <g>
      <path d="M34.49,240.52c.2-4.98,1.69-8.67,4.48-11.09,2.79-2.41,6.49-3.53,11.09-3.35,3.32.13,6.17.79,8.55,1.98,2.38,1.19,4.19,2.93,5.42,5.22,1.23,2.29,1.77,5.16,1.64,8.6-.07,1.79-.25,3.4-.54,4.85-.29,1.45-.68,2.8-1.17,4.07l-4.42-.17c1.04-2.53,1.62-5.36,1.75-8.49.15-3.85-.76-6.59-2.73-8.22-1.98-1.63-4.87-2.52-8.69-2.67-3.47-.14-6.15.57-8.03,2.13-1.88,1.56-2.89,4.04-3.02,7.45-.11,2.69.12,4.88.68,6.56l8.45.33.3-7.56,3.33.13-.47,11.93-14.56-.57c-.59-1-1.11-2.4-1.55-4.22-.45-1.82-.62-4.12-.5-6.91Z" fill="#7560fd"/>
      <path d="M35.8,271.58c-.41-3.86.21-6.96,1.89-9.28,1.67-2.32,4.47-3.69,8.4-4.12,3.55-.38,6.45.22,8.7,1.81,2.25,1.58,3.57,4.22,3.97,7.89.36,3.36-.25,5.99-1.82,7.88-1.58,1.89-3.75,2.98-6.53,3.28l-4.11.44-1.74-16.22c-2.12.48-3.52,1.42-4.19,2.81-.67,1.4-.86,3.43-.57,6.11.12,1.12.35,2.26.7,3.42.34,1.16.74,2.16,1.17,2.99l-3.74.4c-.54-.95-.99-2.06-1.35-3.33-.36-1.27-.61-2.64-.77-4.1ZM47.87,262.91l1.26,11.73,1.54-.17c1.53-.16,2.67-.71,3.44-1.65.77-.93,1.04-2.4.83-4.39-.25-2.37-.94-3.94-2.07-4.72-1.12-.78-2.79-1.05-5-.81Z" fill="#7560fd"/>
      <path d="M40.03,295.87c-.35-1.49-.58-2.95-.69-4.35-.11-1.41-.11-2.59-.02-3.54l4.21-1c-.15,1.13-.19,2.35-.1,3.65.08,1.3.26,2.51.52,3.64.4,1.71.84,2.89,1.32,3.55.48.66,1.16.89,2.04.68.64-.15,1.09-.49,1.35-1.02.26-.53.44-1.26.54-2.2.1-.94.2-2.13.31-3.58.12-1.38.33-2.6.61-3.67.28-1.06.75-1.95,1.42-2.65.67-.71,1.65-1.21,2.93-1.51,1.98-.47,3.68-.11,5.11,1.06,1.42,1.18,2.51,3.35,3.26,6.52.29,1.25.48,2.46.57,3.63.08,1.17.08,2.19,0,3.04l-4.16.98c.13-.93.17-1.93.11-3-.06-1.06-.19-2.04-.4-2.92-.38-1.58-.8-2.75-1.26-3.49-.47-.74-1.11-1.02-1.93-.82-.86.2-1.36.76-1.51,1.68-.15.92-.31,2.38-.48,4.39-.12,1.83-.34,3.32-.68,4.46-.34,1.14-.87,2.03-1.57,2.66-.7.63-1.7,1.1-2.98,1.4-2.13.5-3.91.1-5.33-1.2-1.42-1.31-2.48-3.44-3.18-6.4Z" fill="#7560fd"/>
      <path d="M47.22,320.13c-.78-2.25-.76-4.14.05-5.66.82-1.53,2.26-2.65,4.33-3.37l11.01-3.82-1.08-3.11,3.77-1.31,1.08,3.11,4.84-1.68,3.13,4.29-6.3,2.19,1.94,5.6-3.88,1-1.83-5.28-10.75,3.73c-1.21.42-1.97,1-2.26,1.73-.29.73-.22,1.73.22,3.01.28.8.72,1.59,1.32,2.38l-3.42,1.19c-.87-.99-1.6-2.31-2.17-3.97Z" fill="#7560fd"/>
      <path d="M54.34,337.37c-.61-1.27-.95-2.56-1.02-3.86-.07-1.3.2-2.5.8-3.59.61-1.09,1.59-1.96,2.94-2.61,1.92-.92,3.78-1.01,5.59-.26,1.8.75,3.36,2.49,4.68,5.23l3.1,6.44.89-.43c.96-.46,1.65-.98,2.07-1.54.42-.57.57-1.3.45-2.2-.12-.9-.54-2.1-1.26-3.59-1.14-2.37-2.56-4.42-4.25-6.14l3.43-1.65c.8.73,1.63,1.69,2.48,2.88.85,1.19,1.63,2.53,2.35,4.03,1.41,2.94,1.89,5.46,1.45,7.57-.45,2.11-2.01,3.81-4.69,5.1l-12.92,6.21-1.89-3.94,1.89-1.27c-1.18-.44-2.28-1.16-3.28-2.15-1-1-1.94-2.4-2.8-4.21ZM58.23,337.01c.67,1.38,1.48,2.48,2.44,3.29.96.81,1.99,1.34,3.1,1.61l3.51-1.69-3.05-6.35c-.65-1.36-1.38-2.21-2.2-2.57s-1.76-.28-2.83.24c-1.04.5-1.62,1.22-1.74,2.14-.11.92.14,2.03.77,3.33ZM80.7,332.89c-.37-.76-.59-1.59-.67-2.47-.08-.88-.15-1.74-.21-2.56-.06-.82-.25-1.56-.56-2.21-.35-.73-.79-1.36-1.32-1.87-.52-.51-1.18-.87-1.98-1.08l3.39-1.63c.57.18,1.13.54,1.67,1.1.54.55.99,1.19,1.33,1.89.39.82.62,1.65.7,2.48.07.83.13,1.66.17,2.47.04.81.24,1.59.59,2.32.71,1.47,1.77,2.35,3.2,2.64l-3.39,1.63c-.5-.11-1.02-.39-1.56-.87-.54-.47-.99-1.09-1.36-1.85Z" fill="#7560fd"/>
      <path d="M70.53,366.25c-2.22-3.34-3.01-6.34-2.37-9.01.64-2.66,2.51-5.02,5.62-7.09,3.11-2.06,6.01-2.87,8.72-2.41,2.71.46,5.17,2.34,7.37,5.66,2.22,3.34,3.01,6.35,2.38,9.02-.63,2.68-2.5,5.05-5.6,7.11-3.11,2.06-6.01,2.87-8.71,2.43-2.7-.44-5.17-2.35-7.41-5.71ZM74.13,363.85c1.3,1.96,2.7,3.03,4.2,3.22,1.5.19,3.32-.43,5.46-1.85,2.14-1.42,3.41-2.86,3.8-4.3.39-1.45-.06-3.15-1.36-5.11-1.28-1.93-2.67-3-4.15-3.19-1.49-.2-3.3.41-5.44,1.84-2.14,1.42-3.41,2.86-3.82,4.31-.41,1.46.03,3.15,1.31,5.08Z" fill="#7560fd"/>
      <path d="M99.11,400.85c-2.75-2.74-4.21-5.54-4.37-8.4s1.15-5.69,3.94-8.48c2.52-2.53,5.15-3.89,7.9-4.07,2.75-.18,5.43,1.03,8.05,3.64,2.4,2.39,3.58,4.81,3.54,7.27-.04,2.46-1.04,4.68-3.01,6.65l-2.92,2.93-11.55-11.51c-1.35,1.71-1.84,3.32-1.49,4.82.36,1.51,1.49,3.21,3.4,5.11.8.8,1.7,1.54,2.7,2.22s1.93,1.21,2.79,1.59l-2.65,2.66c-1.02-.4-2.07-.98-3.14-1.74-1.08-.76-2.14-1.66-3.18-2.7ZM103.03,386.52l8.36,8.32,1.1-1.1c1.08-1.09,1.63-2.24,1.64-3.44s-.7-2.52-2.12-3.93c-1.69-1.68-3.21-2.47-4.58-2.37-1.36.1-2.83.94-4.4,2.52Z" fill="#7560fd"/>
      <path d="M133.99,428.57c-4.04-2.58-6.39-5.57-7.04-8.98-.65-3.41.45-7.34,3.29-11.81,2.96-4.65,6.11-7.38,9.45-8.19,3.34-.81,7.03.08,11.07,2.65,4.07,2.59,6.44,5.57,7.1,8.93.66,3.36-.49,7.36-3.45,12.01-2.85,4.47-5.95,7.13-9.29,7.98-3.35.86-7.06-.01-11.13-2.61ZM136.31,424.92c2.67,1.7,5.1,2.22,7.29,1.55,2.19-.67,4.36-2.68,6.49-6.03,2.26-3.54,3.21-6.42,2.85-8.63-.35-2.21-1.87-4.17-4.53-5.87-2.64-1.68-5.04-2.22-7.2-1.61-2.16.61-4.36,2.69-6.62,6.23-2.14,3.35-3.05,6.17-2.73,8.43.32,2.27,1.8,4.24,4.44,5.93Z" fill="#7560fd"/>
      <path d="M150.35,449.15l12.91-29.75,4.05,1.76-.62,2.14c1.28-.43,2.55-.61,3.82-.54,1.27.07,2.65.43,4.14,1.08,2.93,1.27,4.87,3.06,5.82,5.37.95,2.31.62,5.3-.98,8.98s-3.64,6.06-6.13,7.15c-2.49,1.09-5.2,1-8.13-.28-2.47-1.07-4.34-2.56-5.59-4.48l-4.6,10.61-4.7-2.04ZM165.57,441c3.97,1.72,7.04.08,9.21-4.92,1.05-2.41,1.35-4.32.9-5.73-.45-1.41-1.72-2.57-3.82-3.48-2.1-.91-4.16-.95-6.2-.13l-4.43,10.22c.42.83.97,1.59,1.65,2.28.68.69,1.57,1.27,2.69,1.76Z" fill="#7560fd"/>
      <path d="M193.86,454.97c-3.74-1.04-6.39-2.77-7.93-5.18-1.54-2.41-1.78-5.52-.73-9.32.96-3.44,2.59-5.92,4.89-7.42,2.3-1.51,5.24-1.76,8.8-.77,3.26.91,5.48,2.44,6.65,4.6,1.17,2.16,1.38,4.59.64,7.27l-1.11,3.99-15.71-4.37c-.34,2.15.02,3.79,1.07,4.93,1.05,1.14,2.87,2.07,5.47,2.79,1.09.3,2.23.51,3.44.61,1.21.11,2.28.11,3.22.02l-1.01,3.62c-1.08.15-2.28.16-3.59.03-1.31-.14-2.68-.4-4.1-.8ZM190.25,440.56l11.37,3.16.42-1.49c.41-1.48.32-2.75-.26-3.8-.58-1.06-1.84-1.85-3.77-2.39-2.3-.64-4.01-.58-5.15.18-1.14.76-2,2.21-2.6,4.35Z" fill="#7560fd"/>
      <path d="M210.75,458.4l3.52-22,4.64.74-.13,2.6c1.16-.51,2.51-.93,4.06-1.25s3.04-.48,4.5-.47l-.62,3.85c-.89.02-1.87.09-2.92.22-1.05.13-2.06.31-3.01.52-.96.21-1.77.46-2.45.73l-2.54,15.87-5.06-.81Z" fill="#7560fd"/>
      <path d="M236.09,462c-1.41-.07-2.7-.39-3.88-.95-1.18-.56-2.1-1.37-2.77-2.43-.67-1.05-.96-2.33-.88-3.83.11-2.13.93-3.8,2.45-5.03,1.52-1.22,3.8-1.76,6.84-1.6l7.13.37.05-.99c.06-1.06-.07-1.92-.36-2.56-.3-.64-.87-1.13-1.71-1.45-.85-.33-2.1-.53-3.76-.62-2.63-.14-5.11.13-7.43.79l.2-3.8c1.02-.35,2.26-.62,3.71-.8,1.45-.17,3.01-.22,4.67-.13,3.25.17,5.7.96,7.34,2.36,1.64,1.4,2.38,3.59,2.22,6.56l-.74,14.32-4.37-.23-.21-2.27c-.95.83-2.11,1.44-3.46,1.84-1.36.4-3.03.55-5.04.44ZM237.64,458.41c1.53.08,2.88-.11,4.05-.56,1.17-.46,2.13-1.1,2.9-1.94l.2-3.9-7.04-.37c-1.5-.08-2.6.15-3.31.7-.7.54-1.09,1.41-1.15,2.6-.06,1.16.29,2.01,1.04,2.55.76.54,1.85.85,3.29.92Z" fill="#7560fd"/>
      <path d="M268.8,472.49c-.5.04-1.11.05-1.83.03-.73-.02-1.26-.07-1.61-.13l-.22-2.76c.92.18,1.9.23,2.93.15,1.41-.11,2.41-.32,3.01-.64.6-.31.87-.91.8-1.78-.07-.88-.44-1.39-1.11-1.54-.67-.15-1.62-.18-2.84-.08l-1.88.15.94-4.22c-3.19-.13-5.65-1.1-7.4-2.93-1.75-1.83-2.75-4.41-3.01-7.75-.31-3.9.57-6.9,2.62-8.97,2.05-2.08,4.92-3.26,8.61-3.55,1.53-.12,2.83-.11,3.89.02,1.06.14,2.1.4,3.1.79l.3,3.8c-1.69-.68-3.69-.94-6-.76-2.56.2-4.49.93-5.77,2.17-1.29,1.25-1.82,3.28-1.6,6.09.21,2.66.97,4.55,2.28,5.69,1.32,1.14,3.38,1.6,6.19,1.38,2.22-.17,4.2-.75,5.95-1.74l.3,3.89c-1.75.89-3.78,1.48-6.09,1.75l-.47,1.78c1.69-.13,2.99.14,3.91.82.92.68,1.43,1.68,1.53,2.99.12,1.53-.34,2.76-1.38,3.69s-2.77,1.49-5.17,1.68Z" fill="#7560fd"/>
      <path d="M293.77,431.71c-.83.18-1.68.2-2.56.06-.88-.13-1.72-.27-2.53-.4-.81-.13-1.57-.12-2.28.03-.8.17-1.51.45-2.13.84-.62.39-1.13.94-1.52,1.67l-.78-3.68c.31-.51.8-.97,1.46-1.37.67-.4,1.38-.68,2.15-.84.89-.19,1.75-.22,2.58-.09.83.13,1.64.27,2.44.42.8.15,1.6.14,2.4-.03,1.59-.34,2.7-1.17,3.32-2.48l.78,3.68c-.22.46-.62.9-1.21,1.31-.58.41-1.29.71-2.12.88ZM291.89,458.39c-1.38.29-2.71.32-4,.08-1.29-.24-2.39-.78-3.3-1.63-.92-.85-1.53-2-1.84-3.48-.44-2.08-.08-3.91,1.07-5.49,1.16-1.57,3.22-2.68,6.19-3.31l6.99-1.48-.21-.97c-.22-1.04-.56-1.84-1.01-2.38-.45-.54-1.13-.87-2.03-.96-.9-.1-2.16.03-3.79.37-2.57.55-4.9,1.44-6.97,2.68l-.79-3.72c.9-.61,2.02-1.18,3.38-1.73,1.36-.54,2.85-.99,4.47-1.33,3.19-.68,5.75-.55,7.7.39,1.94.93,3.22,2.86,3.84,5.77l2.97,14.02-4.28.91-.79-2.14c-.71,1.05-1.66,1.94-2.87,2.67s-2.79,1.31-4.75,1.73ZM292.46,454.52c1.5-.32,2.76-.85,3.77-1.59,1.01-.74,1.78-1.62,2.3-2.63l-.81-3.82-6.9,1.46c-1.47.31-2.48.82-3.02,1.53-.54.71-.68,1.64-.44,2.81.24,1.13.8,1.87,1.67,2.19.87.33,2.01.34,3.42.04Z" fill="#7560fd"/>
      <path d="M323.8,449.44c-3.77,1.38-6.87,1.44-9.31.2-2.44-1.24-4.3-3.62-5.58-7.12-1.28-3.5-1.38-6.52-.3-9.05,1.08-2.53,3.48-4.48,7.22-5.84,3.77-1.38,6.88-1.45,9.33-.21,2.45,1.24,4.32,3.61,5.6,7.11,1.28,3.5,1.39,6.52.33,9.04-1.06,2.52-3.49,4.48-7.29,5.87ZM322.32,445.38c2.21-.81,3.58-1.92,4.11-3.33.53-1.41.36-3.33-.52-5.74-.88-2.41-1.98-3.98-3.29-4.7-1.31-.72-3.07-.68-5.28.13-2.18.8-3.54,1.89-4.08,3.29-.54,1.4-.37,3.3.51,5.72.88,2.41,1.98,3.99,3.3,4.72,1.32.74,3.07.71,5.25-.09Z" fill="#7560fd"/>
      <path d="M353.69,435.34l-14.91-26.34,4.46-2.52,14.91,26.34-4.46,2.52Z" fill="#7560fd"/>
      <path d="M366.65,428.4l-13.47-17.74,3.74-2.84,1.61,1.73c.34-1.36.89-2.64,1.63-3.83.75-1.19,1.72-2.25,2.92-3.16,1.27-.97,2.42-1.51,3.45-1.64,1.02-.13,2,.03,2.92.47.31-1.3.84-2.57,1.58-3.83.74-1.25,1.86-2.45,3.36-3.58,2.04-1.55,3.95-2.18,5.72-1.87s3.48,1.55,5.13,3.72l8.89,11.72-4,3.04-8.58-11.31c-1.04-1.37-2.06-2.12-3.05-2.23-.99-.11-2.14.32-3.43,1.31-.85.64-1.54,1.41-2.07,2.28-.53.88-.85,1.82-.94,2.84.29.22.55.47.8.75.25.28.51.6.78.94l8.64,11.38-3.78,2.87-8.55-11.27c-.99-1.3-1.93-2.08-2.83-2.33-.91-.26-1.98.09-3.23,1.03-.87.66-1.55,1.5-2.02,2.51-.47,1.01-.8,2.04-.99,3.08l9.8,12.92-4,3.04Z" fill="#7560fd"/>
      <path d="M408.38,393.2c-2.72,2.94-5.45,4.42-8.19,4.43-2.74,0-5.47-1.25-8.21-3.79-2.74-2.53-4.2-5.17-4.4-7.91-.2-2.74,1.06-5.57,3.76-8.5,2.72-2.94,5.46-4.42,8.21-4.44,2.75-.02,5.49,1.24,8.23,3.77,2.74,2.53,4.21,5.16,4.42,7.89.21,2.73-1.06,5.58-3.81,8.55ZM405.21,390.26c1.6-1.73,2.31-3.34,2.14-4.84s-1.2-3.12-3.08-4.87c-1.89-1.74-3.58-2.64-5.08-2.68-1.5-.04-3.04.8-4.64,2.53-1.57,1.7-2.28,3.3-2.12,4.79.16,1.49,1.18,3.11,3.07,4.85s3.58,2.64,5.09,2.7c1.51.05,3.05-.77,4.63-2.48Z" fill="#7560fd"/>
      <path d="M428.67,367.62c-.92,1.34-1.9,2.38-2.94,3.12-1.04.73-2.21,1.26-3.53,1.57l1.66,1.48-2.5,3.64-26.13-17.91,2.9-4.23,8.95,6.14c.04-2.33.83-4.62,2.37-6.87,1.79-2.61,3.95-4.16,6.47-4.65,2.52-.49,5.44.39,8.75,2.66,3.33,2.29,5.28,4.72,5.82,7.3.55,2.58-.06,5.16-1.83,7.75ZM424.72,366.56c1.31-1.91,1.69-3.63,1.15-5.17-.55-1.53-1.92-3.05-4.11-4.56-2.27-1.56-4.17-2.23-5.68-2.02-1.52.21-2.9,1.24-4.16,3.07-1.31,1.91-1.84,3.83-1.6,5.74l9.23,6.33c2.13-.33,3.85-1.46,5.18-3.4Z" fill="#7560fd"/>
      <path d="M414.62,338.15l-3.72-2.01,2.66-4.92,3.72,2.01-2.66,4.92ZM438.51,350.59l-16.16-8.74-1.61,2.98-3.21-2.27,3.82-7.07,19.6,10.6-2.44,4.51Z" fill="#7560fd"/>
      <path d="M447.48,333.46c-.74,1.66-1.72,2.73-2.92,3.23-1.2.49-2.74.32-4.63-.53l-24.06-10.79,2.1-4.67,23.63,10.6c.8.36,1.41.46,1.82.3.41-.16.75-.52,1.01-1.09.31-.69.52-1.38.63-2.09l3.39,1.52c-.04.63-.14,1.22-.29,1.75-.15.53-.38,1.13-.67,1.78Z" fill="#7560fd"/>
      <path d="M425.74,314.27l-3.96-1.47,1.95-5.24,3.96,1.47-1.95,5.24ZM451.13,323.25l-17.22-6.4-1.18,3.17-3.49-1.8,2.8-7.53,20.88,7.76-1.79,4.8Z" fill="#7560fd"/>
      <path d="M434.21,295.88l-7.18-5.48,1.12-4.37,7.08,5.89-1.01,3.96ZM458.14,303.23c-.35,1.37-.92,2.57-1.7,3.61-.78,1.04-1.76,1.79-2.92,2.23-1.17.45-2.48.48-3.93.11-2.06-.53-3.54-1.66-4.44-3.39-.9-1.73-.97-4.07-.22-7.02l1.77-6.92-.96-.25c-1.03-.26-1.89-.31-2.58-.15-.69.16-1.28.63-1.76,1.39-.49.77-.94,1.95-1.35,3.56-.65,2.55-.88,5.03-.69,7.44l-3.69-.95c-.14-1.07-.16-2.34-.05-3.8.12-1.46.38-2.99.79-4.6.81-3.16,2.06-5.4,3.76-6.73,1.7-1.33,3.99-1.62,6.87-.88l13.89,3.56-1.08,4.23-2.27-.24c.62,1.1,1,2.35,1.12,3.76.12,1.41-.06,3.08-.56,5.02ZM454.93,301c.38-1.49.46-2.85.25-4.09-.22-1.24-.66-2.31-1.33-3.23l-3.78-.97-1.75,6.83c-.37,1.46-.36,2.58.03,3.38.39.8,1.17,1.34,2.32,1.64,1.12.29,2.02.12,2.7-.52.68-.63,1.2-1.65,1.56-3.05Z" fill="#7560fd"/>
      <path d="M462.42,281.52l-22.07-3.05.64-4.66,2.6.07c-.54-1.15-.98-2.49-1.34-4.03-.36-1.54-.55-3.03-.57-4.49l3.86.53c.04.89.13,1.86.29,2.91.16,1.05.35,2.05.58,3,.23.95.49,1.76.78,2.43l15.92,2.2-.7,5.08Z" fill="#7560fd"/>
      <path d="M437.88,258.64l-4.22-.23.3-5.58,4.22.23-.3,5.58ZM464.8,259.67l-18.35-.99-.18,3.38-3.87-.68.43-8.02,22.24,1.2-.28,5.12Z" fill="#7560fd"/>
      <path d="M465.53,238.46c.07,1.41-.11,2.73-.55,3.96-.44,1.23-1.15,2.23-2.13,3-.98.77-2.22,1.2-3.72,1.27-2.13.11-3.88-.53-5.25-1.92-1.37-1.39-2.14-3.6-2.29-6.64l-.37-7.13-.99.05c-1.06.05-1.9.26-2.51.62-.61.36-1.03.98-1.27,1.85-.24.88-.31,2.14-.23,3.8.14,2.63.65,5.07,1.55,7.31l-3.8.2c-.46-.98-.85-2.18-1.17-3.61-.33-1.43-.53-2.97-.62-4.63-.17-3.25.36-5.77,1.59-7.54,1.23-1.77,3.33-2.74,6.3-2.89l14.32-.74.23,4.37-2.24.45c.92.86,1.65,1.95,2.19,3.25.54,1.31.86,2.96.96,4.96ZM461.79,237.29c-.08-1.53-.41-2.86-.98-3.97s-1.32-2.01-2.23-2.69l-3.9.2.36,7.04c.08,1.5.42,2.57,1.04,3.22.61.64,1.52.93,2.71.87,1.16-.06,1.97-.49,2.43-1.3.46-.81.65-1.93.58-3.37Z" fill="#7560fd"/>
    </g>
    <g>
      <path d="M382.78,162.13c-2.52-4.34-6.36-7.6-11.5-9.77-5.15-2.17-11.29-3.26-18.44-3.26s-14.41,1.09-21.77,3.26c-7.37,2.17-14.49,5.43-21.38,9.77-6.89,4.34-13.38,9.77-19.45,16.28-6.08,6.51-11.37,14.18-15.88,22.99l-15.31,31.54,11.82,20.87,27.83-54.45c2.5-4.88,5.45-9.19,8.87-12.92,3.42-3.73,7.02-6.82,10.81-9.26,3.79-2.44,7.75-4.27,11.88-5.49,4.13-1.22,8.12-1.83,11.97-1.83s7.38.61,10.2,1.83c2.81,1.22,4.9,3.05,6.26,5.49,1.36,2.44,1.81,5.53,1.35,9.26.29,5.11-64.28,120.65-64.28,120.65l3.68,6.96,21.13-.13,57.5-112.51c4.51-8.82,7.05-16.48,7.63-22.99.58-6.51-.39-11.94-2.92-16.28Z" fill="#7560fd"/>
      <path d="M179.5,182.33l-57.5,112.51c-4.51,8.82-7.05,16.48-7.63,22.99-.58,6.51.39,11.94,2.92,16.28,2.52,4.34,6.36,7.6,11.5,9.77,5.15,2.17,11.29,3.26,18.44,3.26s14.41-1.09,21.77-3.26c7.37-2.17,14.49-5.43,21.38-9.77,6.89-4.34,13.38-9.77,19.45-16.28,6.08-6.51,11.37-14.18,15.88-22.99l15.31-31.54-11.82-20.87-27.83,54.45c-2.5,4.88-5.45,9.19-8.87,12.92-3.42,3.73-7.02,6.82-10.81,9.26-3.79,2.44-7.75,4.27-11.88,5.49-4.13,1.22-8.12,1.83-11.97,1.83s-7.38-.61-10.2-1.83c-2.81-1.22-4.9-3.05-6.26-5.49-1.36-2.44-1.81-5.53-1.35-9.26-.29-5.11,64.28-120.65,64.28-120.65l67.06,124.89h28.08l-69.89-131.72h-50.05Z" fill="#7560fd"/>
    </g>
    <path d="M374.29,91.42c36.9,29.19,63.22,71.15,72.29,119.22" fill="none" stroke="#7560fd" stroke-miterlimit="10" stroke-width="3"/>
    <path d="M55.23,209.26c9.28-47.35,35.32-88.69,71.7-117.58" fill="none" stroke="#7560fd" stroke-miterlimit="10" stroke-width="3"/>
  </g>
</svg>