<?xml version="1.0" encoding="UTF-8"?>
<svg id="Camada_1" data-name="Camada 1" xmlns="http://www.w3.org/2000/svg" xmlns:xlink="http://www.w3.org/1999/xlink" viewBox="0 0 500 500">
  <defs>
    <linearGradient id="Gradiente_sem_nome_31" data-name="Gradiente sem nome 31" x1="266.34" y1="220.03" x2="496.05" y2="220.03" gradientUnits="userSpaceOnUse">
      <stop offset="0" stop-color="#4f4fec"/>
      <stop offset="1" stop-color="#173bc7"/>
    </linearGradient>
    <linearGradient id="Gradiente_sem_nome_10" data-name="Gradiente sem nome 10" x1="3.95" y1="280.1" x2="339.5" y2="280.1" gradientUnits="userSpaceOnUse">
      <stop offset="0" stop-color="#7560fd"/>
      <stop offset="1" stop-color="#4f4fec"/>
    </linearGradient>
  </defs>
  <path d="M490.48,94.22c-4.57-7.86-11.52-13.76-20.84-17.69-9.32-3.93-20.46-5.9-33.4-5.9s-26.1,1.97-39.43,5.9c-13.34,3.93-26.26,9.83-38.74,17.69-12.49,7.87-24.23,17.69-35.24,29.49-11.01,11.8-20.6,25.68-28.76,41.66l-27.73,57.14,21.41,37.81,50.41-98.64c4.52-8.85,9.87-16.65,16.07-23.41,6.19-6.76,12.72-12.35,19.59-16.77,6.86-4.42,14.04-7.74,21.52-9.95,7.48-2.21,14.7-3.32,21.68-3.32s13.38,1.11,18.47,3.32c5.09,2.21,8.88,5.53,11.35,9.95,2.47,4.42,3.28,10.02,2.45,16.77.53,9.25-116.45,218.56-116.45,218.56l6.66,12.6,38.28-.24,104.16-203.82c8.16-15.97,12.77-29.86,13.82-41.66,1.04-11.8-.72-21.62-5.28-29.49Z" fill="url(#Gradiente_sem_nome_31)"/>
  <path d="M122.22,130.82L18.06,334.64c-8.16,15.97-12.77,29.86-13.82,41.66-1.04,11.8.72,21.62,5.28,29.49,4.57,7.86,11.52,13.76,20.84,17.69,9.32,3.93,20.46,5.9,33.4,5.9s26.1-1.97,39.43-5.9c13.34-3.93,26.26-9.83,38.74-17.69,12.49-7.87,24.23-17.69,35.24-29.49,11.01-11.8,20.6-25.68,28.76-41.66l27.73-57.14-21.41-37.81-50.41,98.64c-4.52,8.85-9.87,16.65-16.07,23.41-6.19,6.76-12.72,12.35-19.59,16.77-6.87,4.42-14.04,7.74-21.52,9.95-7.48,2.21-14.7,3.32-21.68,3.32s-13.38-1.11-18.47-3.32c-5.09-2.21-8.88-5.53-11.35-9.95-2.47-4.42-3.28-10.02-2.45-16.77-.53-9.25,116.45-218.56,116.45-218.56l121.48,226.25h50.86l-126.61-238.61h-90.67Z" fill="url(#Gradiente_sem_nome_10)"/>
</svg>