<?xml version="1.0" encoding="UTF-8"?>
<svg id="Camada_1" data-name="Camada 1" xmlns="http://www.w3.org/2000/svg" xmlns:xlink="http://www.w3.org/1999/xlink" viewBox="0 0 500 500">
  <defs>
    <linearGradient id="Gradiente_sem_nome_31" data-name="Gradiente sem nome 31" x1="75.32" y1="241.77" x2="138.38" y2="241.77" gradientUnits="userSpaceOnUse">
      <stop offset="0" stop-color="#4f4fec"/>
      <stop offset="1" stop-color="#173bc7"/>
    </linearGradient>
    <linearGradient id="Gradiente_sem_nome_10" data-name="Gradiente sem nome 10" x1="3.28" y1="258.26" x2="95.4" y2="258.26" gradientUnits="userSpaceOnUse">
      <stop offset="0" stop-color="#7560fd"/>
      <stop offset="1" stop-color="#4f4fec"/>
    </linearGradient>
  </defs>
  <g>
    <path d="M181.8,219.46c3.74,0,7.26.58,10.53,1.73,3.28,1.15,6.16,2.88,8.64,5.19,2.49,2.31,4.45,5.19,5.89,8.64,1.44,3.46,2.16,7.53,2.16,12.21v29.71h-12.32v-30.79c0-2.59-.38-4.88-1.13-6.86-.76-1.98-1.82-3.62-3.19-4.92-1.37-1.3-2.95-2.27-4.75-2.92-1.8-.65-3.75-.97-5.83-.97s-3.94.32-5.78.97c-1.84.65-3.42,1.62-4.75,2.92-1.33,1.3-2.4,2.94-3.19,4.92-.79,1.98-1.19,4.27-1.19,6.86v30.79h-12.21v-29.71c0-4.68.72-8.75,2.16-12.21,1.44-3.46,3.38-6.34,5.83-8.64,2.45-2.3,5.31-4.03,8.59-5.19,3.28-1.15,6.79-1.73,10.53-1.73Z" fill="#fff"/>
    <path d="M272.13,251.33h-43.65c.22,2.81.86,5.21,1.94,7.19,1.08,1.98,2.41,3.62,4,4.92,1.58,1.3,3.35,2.25,5.29,2.86,1.94.61,3.89.92,5.83.92,3.1,0,5.98-.72,8.64-2.16,2.66-1.44,4.43-3.46,5.29-6.05l12.64-.11c-.72,3.1-1.94,5.83-3.67,8.21-1.73,2.38-3.78,4.36-6.16,5.94-2.38,1.59-5.01,2.79-7.89,3.62-2.88.83-5.83,1.24-8.86,1.24-3.6,0-7.13-.59-10.59-1.78s-6.56-2.99-9.29-5.4c-2.74-2.41-4.95-5.47-6.64-9.18-1.69-3.71-2.54-8.05-2.54-13.02s.81-9.15,2.43-12.75c1.62-3.6,3.76-6.63,6.43-9.08,2.66-2.45,5.67-4.27,9.02-5.46s6.79-1.78,10.32-1.78,6.82.58,10.1,1.73c3.28,1.15,6.19,2.88,8.75,5.19,2.56,2.31,4.63,5.17,6.21,8.59,1.58,3.42,2.38,7.4,2.38,11.94v4.43ZM260.25,242.26c-1.15-3.96-3.19-6.91-6.1-8.86-2.92-1.94-6.03-2.92-9.35-2.92s-6.43.97-9.35,2.92c-2.92,1.94-4.99,4.9-6.21,8.86h31.01Z" fill="#fff"/>
    <path d="M317.19,248.74c1.3.72,2.36,1.64,3.19,2.76.83,1.12,1.93,2.72,3.3,4.81l12.75,20.64h-14.48l-11.56-19.34c-.72-1.22-1.4-2.09-2.05-2.59-.65-.5-1.66-.76-3.03-.76s-2.4.25-3.08.76c-.69.5-1.35,1.33-2,2.49l-11.56,19.45h-14.59l12.86-20.64c1.3-2.09,2.38-3.69,3.24-4.81.86-1.12,1.94-2.03,3.24-2.76-1.3-.72-2.38-1.66-3.24-2.81-.86-1.15-1.94-2.77-3.24-4.86l-12.86-20.64h14.59l11.56,19.45c.72,1.23,1.4,2.07,2.05,2.54.65.47,1.66.7,3.03.7s2.36-.23,2.97-.7c.61-.47,1.31-1.31,2.11-2.54l11.56-19.45h14.48l-12.75,20.64c-1.37,2.09-2.47,3.71-3.3,4.86-.83,1.15-1.89,2.09-3.19,2.81Z" fill="#fff"/>
    <path d="M395.31,248.74v28.2h-12.21v-9.18c-1.94,3.46-4.61,6.02-8,7.67-3.39,1.66-7.02,2.49-10.91,2.49-3.24,0-6.48-.61-9.72-1.84-3.24-1.22-6.16-3.06-8.75-5.51-2.59-2.45-4.68-5.49-6.27-9.13-1.59-3.64-2.38-7.87-2.38-12.7s.83-9.18,2.49-12.86c1.66-3.67,3.85-6.72,6.59-9.13,2.74-2.41,5.85-4.23,9.35-5.46,3.49-1.22,7.08-1.84,10.75-1.84s7.15.61,10.64,1.84c3.49,1.23,6.61,3.04,9.35,5.46,2.74,2.41,4.93,5.46,6.59,9.13,1.66,3.67,2.49,7.96,2.49,12.86ZM366.35,266.46c2.45,0,4.7-.47,6.75-1.4,2.05-.94,3.82-2.2,5.29-3.78,1.48-1.58,2.63-3.46,3.46-5.62.83-2.16,1.24-4.47,1.24-6.92s-.42-4.74-1.24-6.86c-.83-2.12-1.98-4-3.46-5.62-1.48-1.62-3.24-2.9-5.29-3.84-2.05-.94-4.3-1.4-6.75-1.4s-4.7.47-6.75,1.4c-2.05.94-3.82,2.21-5.29,3.84-1.48,1.62-2.63,3.49-3.46,5.62-.83,2.13-1.24,4.41-1.24,6.86s.41,4.75,1.24,6.92c.83,2.16,1.98,4.03,3.46,5.62,1.48,1.59,3.24,2.85,5.29,3.78,2.05.94,4.3,1.4,6.75,1.4Z" fill="#fff"/>
  </g>
  <g>
    <path d="M136.85,207.23c-1.26-2.16-3.16-3.78-5.72-4.86-2.56-1.08-5.62-1.62-9.17-1.62s-7.16.54-10.83,1.62c-3.66,1.08-7.21,2.7-10.63,4.86-3.43,2.16-6.65,4.86-9.67,8.1-3.02,3.24-5.65,7.05-7.9,11.44l-7.61,15.69,5.88,10.38,13.84-27.08c1.24-2.43,2.71-4.57,4.41-6.43,1.7-1.85,3.49-3.39,5.38-4.61,1.88-1.21,3.85-2.13,5.91-2.73,2.05-.61,4.04-.91,5.95-.91s3.67.3,5.07.91c1.4.61,2.44,1.52,3.12,2.73.68,1.21.9,2.75.67,4.61.15,2.54-31.97,60-31.97,60l1.83,3.46,10.51-.07,28.6-55.96c2.24-4.39,3.51-8.2,3.79-11.44.29-3.24-.2-5.94-1.45-8.1Z" fill="url(#Gradiente_sem_nome_31)"/>
    <path d="M35.75,217.28l-28.6,55.96c-2.24,4.39-3.51,8.2-3.79,11.44-.29,3.24.2,5.94,1.45,8.1,1.26,2.16,3.16,3.78,5.72,4.86,2.56,1.08,5.62,1.62,9.17,1.62s7.16-.54,10.83-1.62c3.66-1.08,7.21-2.7,10.63-4.86,3.43-2.16,6.65-4.86,9.67-8.1,3.02-3.24,5.65-7.05,7.9-11.44l7.61-15.69-5.88-10.38-13.84,27.08c-1.24,2.43-2.71,4.57-4.41,6.43-1.7,1.85-3.49,3.39-5.38,4.61-1.88,1.21-3.85,2.13-5.91,2.73-2.05.61-4.04.91-5.95.91s-3.67-.3-5.07-.91c-1.4-.61-2.44-1.52-3.12-2.73-.68-1.21-.9-2.75-.67-4.61-.15-2.54,31.97-60,31.97-60l33.35,62.12h13.96l-34.76-65.51h-24.89Z" fill="url(#Gradiente_sem_nome_10)"/>
  </g>
  <g>
    <path d="M413.7,265.07c-1.1,0-1.93-.3-2.48-.89-.56-.59-.83-1.4-.83-2.41,0-.73.12-1.37.36-1.9s.61-.95,1.1-1.24,1.12-.44,1.88-.44c.39,0,.75.03,1.07.08s.62.13.91.22v.97c-.57-.21-1.2-.31-1.89-.31-.85,0-1.45.22-1.79.67-.34.45-.51,1.1-.51,1.94,0,.77.18,1.35.54,1.75.36.4.92.6,1.67.6.59,0,1.07-.07,1.44-.21v-1.87h-1.67v-.74h2.63v3.21c-.21.14-.52.26-.92.38-.4.11-.9.17-1.52.17Z" fill="#fff"/>
    <path d="M419.72,265.07c-.86,0-1.52-.21-1.99-.63-.47-.42-.7-1.07-.7-1.94,0-.79.2-1.41.6-1.87.4-.46,1.01-.68,1.82-.68.75,0,1.31.2,1.68.59.38.39.56.89.56,1.51v.91h-3.6c.06.48.23.81.52.98.29.18.73.27,1.33.27.25,0,.5-.02.77-.07.26-.05.49-.11.68-.19v.83c-.22.1-.47.17-.76.22-.29.05-.59.07-.92.07ZM418.1,262.22h2.6v-.34c0-.34-.09-.6-.28-.79-.19-.19-.5-.28-.94-.28-.53,0-.89.11-1.08.34s-.3.59-.3,1.08Z" fill="#fff"/>
    <path d="M424.38,265.07c-.34,0-.66-.02-.97-.07-.31-.05-.56-.11-.76-.18v-.95c.23.09.49.16.78.21.28.05.55.07.81.07.39,0,.66-.03.83-.1.17-.07.25-.2.25-.4,0-.15-.05-.26-.15-.34-.1-.08-.25-.16-.45-.23-.2-.07-.45-.15-.75-.25-.29-.1-.54-.2-.76-.32-.21-.11-.38-.26-.5-.44s-.18-.41-.18-.7c0-.45.16-.8.49-1.04.32-.25.85-.37,1.56-.37.28,0,.55.02.81.06.26.04.47.09.65.16v.94c-.19-.08-.41-.13-.64-.18-.23-.04-.45-.06-.65-.06-.36,0-.63.03-.81.09-.18.06-.27.19-.27.37s.09.33.28.41c.19.08.5.19.92.33.39.12.69.24.92.37.23.13.39.29.49.47.1.18.15.42.15.71,0,.48-.18.84-.53,1.08-.35.24-.86.36-1.53.36Z" fill="#fff"/>
    <path d="M429.27,265.07c-.53,0-.92-.14-1.18-.42-.26-.28-.39-.66-.39-1.15v-2.57h-.73v-.88h.73v-1.13l1.12-.34v1.47h1.31l-.07.88h-1.23v2.51c0,.28.07.48.2.6.13.11.35.17.64.17.19,0,.38-.03.59-.1v.8c-.27.11-.6.17-.98.17Z" fill="#fff"/>
    <path d="M432.65,265.07c-.31,0-.6-.06-.87-.17-.27-.11-.48-.28-.64-.5-.16-.22-.24-.5-.24-.83,0-.47.16-.85.48-1.13.32-.29.82-.43,1.49-.43h1.58v-.22c0-.23-.04-.42-.11-.56-.07-.14-.2-.24-.39-.3-.19-.06-.47-.09-.83-.09-.58,0-1.12.09-1.63.26v-.84c.22-.09.49-.16.81-.22.32-.06.66-.08,1.03-.08.72,0,1.27.15,1.64.44.38.29.56.76.56,1.42v3.16h-.96l-.07-.5c-.2.19-.45.34-.74.45-.29.1-.66.16-1.1.16ZM434.28,259.4c-.19,0-.37-.03-.55-.1-.18-.07-.36-.14-.53-.2-.17-.07-.33-.1-.49-.1-.18,0-.35.03-.5.08-.15.06-.29.15-.4.29v-.83c.09-.1.22-.17.38-.23.16-.06.33-.08.5-.08.2,0,.39.03.56.1.17.07.34.13.51.2.17.07.34.1.52.1.36,0,.64-.13.83-.38v.83c-.07.09-.18.17-.32.23-.15.06-.31.09-.5.09ZM432.95,264.26c.34,0,.63-.06.89-.17.25-.11.46-.27.62-.46v-.86h-1.55c-.33,0-.57.06-.72.19-.15.13-.22.32-.22.59s.09.44.26.55c.17.11.42.17.74.17Z" fill="#fff"/>
    <path d="M439.14,265.07c-.88,0-1.53-.22-1.94-.66-.41-.44-.62-1.07-.62-1.9s.21-1.45.62-1.9c.41-.44,1.06-.66,1.94-.66s1.53.22,1.95.66c.41.44.62,1.07.62,1.9s-.21,1.45-.62,1.9c-.41.44-1.06.66-1.95.66ZM439.14,264.11c.52,0,.89-.13,1.1-.38.22-.25.33-.66.33-1.23s-.11-.97-.33-1.22-.59-.37-1.1-.37-.88.12-1.09.37-.33.66-.33,1.22.11.98.33,1.23c.22.25.58.38,1.09.38Z" fill="#fff"/>
    <path d="M447.67,265.07c-.86,0-1.52-.21-1.99-.63-.47-.42-.7-1.07-.7-1.94,0-.79.2-1.41.6-1.87.4-.46,1.01-.68,1.82-.68.75,0,1.31.2,1.68.59.38.39.56.89.56,1.51v.91h-3.6c.06.48.23.81.52.98.29.18.73.27,1.33.27.25,0,.5-.02.77-.07.26-.05.49-.11.68-.19v.83c-.22.1-.47.17-.76.22-.29.05-.59.07-.92.07ZM446.06,262.22h2.6v-.34c0-.34-.09-.6-.28-.79-.19-.19-.5-.28-.94-.28-.53,0-.89.11-1.08.34s-.3.59-.3,1.08Z" fill="#fff"/>
    <path d="M456.09,265.07c-1.06,0-1.85-.28-2.37-.83s-.79-1.42-.79-2.59.26-2.1.79-2.64c.53-.55,1.32-.82,2.37-.82s1.86.27,2.38.82c.52.55.78,1.43.78,2.64s-.26,2.03-.78,2.59c-.52.56-1.31.83-2.38.83ZM456.09,264.11c.7,0,1.21-.19,1.54-.58.33-.38.49-1.01.49-1.89,0-.93-.16-1.57-.49-1.94s-.84-.55-1.54-.55-1.2.18-1.53.55c-.33.37-.49,1.02-.49,1.94,0,.88.16,1.51.49,1.89.33.38.84.58,1.53.58Z" fill="#fff"/>
    <path d="M460.35,267.2v-7.15h.97l.06.49c.22-.2.46-.35.73-.45.26-.1.57-.15.93-.15.7,0,1.25.19,1.65.58.39.38.59,1.02.59,1.9s-.2,1.55-.61,1.98c-.41.44-.96.66-1.67.66-.59,0-1.1-.14-1.52-.41v2.55h-1.13ZM462.71,264.22c.95,0,1.43-.6,1.43-1.8,0-.58-.11-.99-.32-1.24-.21-.25-.57-.37-1.08-.37s-.93.17-1.26.52v2.46c.16.13.34.24.53.32.2.08.43.12.7.12Z" fill="#fff"/>
    <path d="M468.87,265.07c-.86,0-1.52-.21-1.99-.63-.47-.42-.7-1.07-.7-1.94,0-.79.2-1.41.6-1.87.4-.46,1.01-.68,1.82-.68.75,0,1.31.2,1.68.59.38.39.56.89.56,1.51v.91h-3.6c.06.48.23.81.52.98.29.18.73.27,1.33.27.25,0,.5-.02.77-.07.26-.05.49-.11.68-.19v.83c-.22.1-.47.17-.76.22-.29.05-.59.07-.92.07ZM467.25,262.22h2.6v-.34c0-.34-.09-.6-.28-.79-.19-.19-.5-.28-.94-.28-.53,0-.89.11-1.08.34s-.3.59-.3,1.08Z" fill="#fff"/>
    <path d="M471.94,264.96v-4.91h1.04l.06.57c.23-.15.51-.29.84-.41s.65-.21.96-.26v.86c-.19.03-.4.08-.63.15-.22.07-.44.14-.64.22-.2.08-.37.16-.51.24v3.54h-1.13Z" fill="#fff"/>
    <path d="M476.89,265.07c-.31,0-.6-.06-.87-.17-.27-.11-.48-.28-.64-.5-.16-.22-.24-.5-.24-.83,0-.47.16-.85.48-1.13.32-.29.82-.43,1.49-.43h1.58v-.22c0-.23-.04-.42-.11-.56-.07-.14-.2-.24-.39-.3-.19-.06-.47-.09-.83-.09-.58,0-1.12.09-1.63.26v-.84c.22-.09.49-.16.81-.22.32-.06.66-.08,1.03-.08.72,0,1.27.15,1.64.44.38.29.56.76.56,1.42v3.16h-.96l-.07-.5c-.2.19-.45.34-.74.45-.29.1-.66.16-1.1.16ZM477.19,264.26c.34,0,.63-.06.89-.17.25-.11.46-.27.62-.46v-.86h-1.55c-.33,0-.57.06-.72.19-.15.13-.22.32-.22.59s.09.44.26.55c.17.11.42.17.74.17Z" fill="#fff"/>
    <path d="M483.13,267.45c-.11,0-.25,0-.4-.03-.16-.02-.28-.04-.35-.06v-.61c.2.06.41.08.64.08.31,0,.54-.03.67-.09.14-.06.21-.18.21-.38s-.07-.31-.22-.36c-.15-.04-.35-.07-.62-.07h-.41l.28-.91c-.7-.08-1.22-.34-1.58-.77s-.53-1.02-.53-1.76c0-.86.24-1.51.73-1.93.49-.42,1.14-.63,1.95-.63.34,0,.62.02.86.07.23.05.45.12.67.23v.84c-.36-.18-.79-.27-1.31-.27-.57,0-1,.13-1.31.38-.3.25-.46.69-.46,1.31,0,.59.13,1.02.4,1.29.27.27.72.41,1.34.41.49,0,.94-.09,1.34-.28v.86c-.4.17-.86.26-1.37.28l-.13.38c.37,0,.65.08.84.25.19.17.29.39.29.68,0,.34-.12.6-.37.79-.25.19-.63.28-1.17.28Z" fill="#fff"/>
    <path d="M487.66,265.07c-.31,0-.6-.06-.87-.17-.27-.11-.48-.28-.64-.5-.16-.22-.24-.5-.24-.83,0-.47.16-.85.48-1.13.32-.29.82-.43,1.49-.43h1.58v-.22c0-.23-.04-.42-.11-.56-.07-.14-.2-.24-.39-.3-.19-.06-.47-.09-.83-.09-.58,0-1.12.09-1.63.26v-.84c.22-.09.49-.16.81-.22.32-.06.66-.08,1.03-.08.72,0,1.27.15,1.64.44.38.29.56.76.56,1.42v3.16h-.96l-.07-.5c-.2.19-.45.34-.74.45-.29.1-.66.16-1.1.16ZM489.29,259.4c-.19,0-.37-.03-.55-.1-.18-.07-.36-.14-.53-.2-.17-.07-.33-.1-.49-.1-.18,0-.35.03-.5.08-.15.06-.29.15-.4.29v-.83c.09-.1.22-.17.38-.23.16-.06.33-.08.5-.08.2,0,.39.03.56.1.17.07.34.13.51.2.17.07.34.1.52.1.36,0,.64-.13.83-.38v.83c-.07.09-.18.17-.32.23-.15.06-.31.09-.5.09ZM487.96,264.26c.34,0,.63-.06.89-.17.25-.11.46-.27.62-.46v-.86h-1.55c-.33,0-.57.06-.72.19-.15.13-.22.32-.22.59s.09.44.26.55c.17.11.42.17.74.17Z" fill="#fff"/>
    <path d="M494.15,265.07c-.88,0-1.53-.22-1.94-.66-.41-.44-.62-1.07-.62-1.9s.21-1.45.62-1.9c.41-.44,1.06-.66,1.94-.66s1.53.22,1.95.66c.41.44.62,1.07.62,1.9s-.21,1.45-.62,1.9c-.41.44-1.06.66-1.95.66ZM494.15,264.11c.52,0,.89-.13,1.1-.38.22-.25.33-.66.33-1.23s-.11-.97-.33-1.22-.59-.37-1.1-.37-.88.12-1.09.37-.33.66-.33,1.22.11.98.33,1.23c.22.25.58.38,1.09.38Z" fill="#fff"/>
    <path d="M410.4,277.4v-6.67h1.95v6.67h-1.95Z" fill="#fff"/>
    <path d="M413.28,277.4v-4.91h1.8l.05.39c.21-.15.45-.26.72-.36s.56-.14.88-.14.57.05.75.13c.18.09.32.22.44.39.22-.16.47-.29.75-.38s.61-.15.99-.15c.57,0,.99.15,1.26.45.27.3.4.76.4,1.37v3.19h-1.92v-2.96c0-.22-.04-.38-.13-.47s-.24-.14-.45-.14c-.27,0-.49.1-.66.29.01.09.02.17.02.25v3.03h-1.8v-2.99c0-.2-.03-.35-.1-.44-.07-.09-.2-.14-.39-.14-.13,0-.26.03-.38.1s-.23.15-.33.25v3.22h-1.89Z" fill="#fff"/>
    <path d="M424.8,277.5c-.98,0-1.7-.22-2.17-.65-.47-.44-.7-1.07-.7-1.91s.23-1.46.7-1.9c.47-.44,1.19-.66,2.17-.66s1.71.22,2.18.66c.47.44.71,1.07.71,1.9s-.24,1.47-.7,1.91c-.47.44-1.2.65-2.19.65ZM424.8,276.08c.32,0,.55-.09.69-.27.14-.18.21-.47.21-.87s-.07-.68-.21-.87c-.14-.18-.37-.27-.69-.27s-.54.09-.67.27c-.14.18-.21.47-.21.87s.07.69.21.87c.14.18.36.27.67.27Z" fill="#fff"/>
    <path d="M431.7,277.5c-.32,0-.6-.04-.83-.13-.24-.09-.46-.21-.66-.36l-.09.38h-1.69v-6.98h1.95v2.25c.17-.09.36-.16.59-.21.22-.05.45-.07.68-.07.73,0,1.31.2,1.73.59.42.39.63,1.03.63,1.93s-.21,1.53-.62,1.96-.97.64-1.67.64ZM431.14,276.09c.3,0,.52-.09.66-.27.13-.18.2-.48.2-.9s-.07-.71-.21-.88c-.14-.17-.36-.25-.65-.25-.32,0-.57.09-.77.26v1.74c.21.2.47.3.77.3Z" fill="#fff"/>
    <path d="M435,277.4v-3.49h-.72l.17-1.42h2.5v4.91h-1.95ZM434.85,271.83v-1.41h2.1v1.41h-2.1Z" fill="#fff"/>
    <path d="M439.55,277.5c-.6,0-1.03-.13-1.29-.38-.26-.26-.38-.66-.38-1.2v-5.5h1.95v5.29c0,.15.03.25.09.31.06.05.16.08.29.08.09,0,.18,0,.26-.02.09-.01.17-.03.24-.06v1.3c-.18.07-.35.12-.52.16-.17.03-.39.05-.65.05Z" fill="#fff"/>
    <path d="M441.32,277.4v-3.49h-.72l.17-1.42h2.5v4.91h-1.95ZM441.17,271.83v-1.41h2.1v1.41h-2.1Z" fill="#fff"/>
    <path d="M445.74,277.5c-.31,0-.6-.06-.87-.17-.27-.11-.48-.28-.64-.52-.16-.23-.24-.53-.24-.89,0-.52.17-.92.52-1.21.35-.29.87-.43,1.56-.43h1.27v-.09c0-.19-.08-.33-.24-.42-.16-.09-.44-.13-.84-.13-.57,0-1.13.09-1.68.26v-1.17c.25-.1.56-.18.93-.24.37-.07.75-.1,1.14-.1.78,0,1.4.16,1.86.48.46.32.68.82.68,1.51v3.03h-1.7l-.09-.39c-.17.15-.4.27-.67.36s-.61.13-1.01.13ZM446.4,276.36c.22,0,.41-.04.56-.11.16-.08.28-.17.39-.28v-.61h-.94c-.43,0-.64.17-.64.51s.21.5.63.5ZM445.97,271.99l.91-2.13h1.51l-.99,2.13h-1.43Z" fill="#fff"/>
    <path d="M450.09,277.4v-4.91h1.88l.05.39c.2-.12.46-.22.77-.32s.63-.16.94-.18v1.45c-.18.01-.37.04-.59.07-.21.03-.41.08-.61.13-.2.05-.36.11-.49.17v3.19h-1.95Z" fill="#fff"/>
    <path d="M454.77,277.4v-3.49h-.72l.17-1.42h2.5v4.91h-1.95ZM454.62,271.83v-1.41h2.1v1.41h-2.1Z" fill="#fff"/>
    <path d="M459.19,277.5c-.31,0-.6-.06-.87-.17-.27-.11-.48-.28-.64-.52-.16-.23-.24-.53-.24-.89,0-.52.17-.92.52-1.21.35-.29.87-.43,1.56-.43h1.27v-.09c0-.19-.08-.33-.24-.42-.16-.09-.44-.13-.84-.13-.57,0-1.13.09-1.68.26v-1.17c.25-.1.56-.18.93-.24.37-.07.75-.1,1.14-.1.78,0,1.4.16,1.86.48.46.32.68.82.68,1.51v3.03h-1.7l-.09-.39c-.17.15-.4.27-.67.36s-.61.13-1.01.13ZM459.85,276.36c.22,0,.41-.04.56-.11.16-.08.28-.17.39-.28v-.61h-.94c-.43,0-.64.17-.64.51s.21.5.63.5Z" fill="#fff"/>
  </g>
</svg>