<?xml version="1.0" encoding="UTF-8"?>
<svg id="Camada_1" data-name="Camada 1" xmlns="http://www.w3.org/2000/svg" xmlns:xlink="http://www.w3.org/1999/xlink" viewBox="0 0 1027.87 224.59">
  <defs>
    <linearGradient id="Gradiente_sem_nome_31" data-name="Gradiente sem nome 31" x1="162.7" y1="95.75" x2="289.51" y2="95.75" gradientUnits="userSpaceOnUse">
      <stop offset="0" stop-color="#4f4fec"/>
      <stop offset="1" stop-color="#173bc7"/>
    </linearGradient>
    <linearGradient id="Gradiente_sem_nome_10" data-name="Gradiente sem nome 10" x1="17.85" y1="128.91" x2="203.09" y2="128.91" gradientUnits="userSpaceOnUse">
      <stop offset="0" stop-color="#7560fd"/>
      <stop offset="1" stop-color="#4f4fec"/>
    </linearGradient>
  </defs>
  <g>
    <path d="M376.81,50.89c7.53,0,14.59,1.16,21.18,3.48,6.59,2.32,12.38,5.79,17.38,10.43,5,4.64,8.94,10.43,11.84,17.38,2.9,6.95,4.34,15.14,4.34,24.55v59.74h-24.77v-61.92c0-5.21-.76-9.81-2.28-13.8-1.52-3.98-3.66-7.28-6.41-9.89-2.75-2.61-5.94-4.56-9.56-5.87-3.62-1.3-7.53-1.96-11.73-1.96s-7.93.65-11.62,1.96c-3.69,1.3-6.88,3.26-9.56,5.87-2.68,2.61-4.82,5.9-6.41,9.89-1.6,3.98-2.39,8.58-2.39,13.8v61.92h-24.55v-59.74c0-9.41,1.45-17.6,4.35-24.55,2.9-6.95,6.81-12.74,11.73-17.38,4.92-4.63,10.68-8.11,17.27-10.43,6.59-2.32,13.65-3.48,21.18-3.48Z" fill="#17122e"/>
    <path d="M558.43,114.98h-87.77c.43,5.65,1.74,10.47,3.91,14.45,2.17,3.99,4.85,7.28,8.04,9.89,3.18,2.61,6.73,4.53,10.65,5.76,3.91,1.23,7.82,1.85,11.73,1.85,6.23,0,12.02-1.45,17.38-4.34,5.36-2.9,8.91-6.95,10.65-12.17l25.42-.22c-1.45,6.23-3.91,11.73-7.39,16.51-3.48,4.78-7.6,8.76-12.38,11.95-4.78,3.19-10.07,5.61-15.86,7.28-5.79,1.66-11.73,2.5-17.81,2.5-7.24,0-14.34-1.19-21.29-3.58s-13.18-6.01-18.68-10.86c-5.51-4.85-9.96-11-13.36-18.47-3.4-7.46-5.11-16.19-5.11-26.18s1.63-18.39,4.89-25.64c3.26-7.24,7.57-13.32,12.93-18.25,5.36-4.92,11.41-8.58,18.14-10.97s13.65-3.58,20.75-3.58,13.72,1.16,20.31,3.48c6.59,2.32,12.45,5.79,17.6,10.43,5.14,4.64,9.3,10.39,12.49,17.27,3.18,6.88,4.78,14.88,4.78,24.01v8.91ZM534.54,96.73c-2.32-7.96-6.41-13.9-12.27-17.81-5.87-3.91-12.13-5.87-18.79-5.87s-12.93,1.96-18.79,5.87c-5.87,3.91-10.03,9.85-12.49,17.81h62.35Z" fill="#17122e"/>
    <path d="M649.03,109.76c2.61,1.45,4.74,3.3,6.41,5.54,1.66,2.25,3.87,5.47,6.63,9.67l25.64,41.5h-29.11l-23.25-38.89c-1.45-2.46-2.82-4.2-4.13-5.21-1.3-1.01-3.33-1.52-6.08-1.52s-4.82.51-6.19,1.52c-1.38,1.02-2.72,2.68-4.02,5l-23.25,39.11h-29.33l25.85-41.5c2.61-4.2,4.78-7.42,6.52-9.67,1.74-2.24,3.91-4.09,6.52-5.54-2.61-1.45-4.78-3.33-6.52-5.65-1.74-2.31-3.91-5.57-6.52-9.78l-25.85-41.5h29.33l23.25,39.11c1.45,2.46,2.82,4.17,4.13,5.11,1.3.94,3.33,1.41,6.08,1.41s4.74-.47,5.97-1.41c1.23-.94,2.64-2.64,4.24-5.11l23.25-39.11h29.11l-25.64,41.5c-2.75,4.2-4.96,7.46-6.63,9.78-1.67,2.32-3.8,4.2-6.41,5.65Z" fill="#17122e"/>
    <path d="M806.1,109.76v56.7h-24.55v-18.47c-3.91,6.95-9.27,12.09-16.08,15.42-6.81,3.33-14.12,5-21.94,5-6.52,0-13.04-1.23-19.55-3.69-6.52-2.46-12.38-6.15-17.6-11.08-5.21-4.92-9.42-11.04-12.6-18.36-3.19-7.31-4.78-15.82-4.78-25.53s1.66-18.47,5-25.85c3.33-7.39,7.75-13.5,13.25-18.36,5.5-4.85,11.77-8.51,18.79-10.97,7.02-2.46,14.23-3.69,21.62-3.69s14.37,1.23,21.4,3.69c7.02,2.46,13.29,6.12,18.79,10.97,5.5,4.85,9.92,10.97,13.25,18.36,3.33,7.39,5,16.01,5,25.85ZM747.88,145.39c4.92,0,9.45-.94,13.58-2.82,4.13-1.88,7.68-4.42,10.65-7.6,2.97-3.18,5.29-6.95,6.95-11.3,1.66-4.35,2.5-8.98,2.5-13.9s-.83-9.52-2.5-13.8c-1.67-4.27-3.99-8.04-6.95-11.3-2.97-3.26-6.52-5.83-10.65-7.71-4.13-1.88-8.66-2.82-13.58-2.82s-9.45.94-13.58,2.82c-4.13,1.88-7.68,4.45-10.65,7.71-2.97,3.26-5.29,7.03-6.95,11.3-1.67,4.27-2.5,8.87-2.5,13.8s.83,9.56,2.5,13.9c1.66,4.34,3.98,8.11,6.95,11.3,2.97,3.19,6.52,5.72,10.65,7.6,4.13,1.88,8.65,2.82,13.58,2.82Z" fill="#17122e"/>
  </g>
  <g>
    <path d="M286.43,26.3c-2.52-4.34-6.36-7.6-11.5-9.77-5.15-2.17-11.29-3.26-18.44-3.26s-14.41,1.09-21.77,3.26c-7.37,2.17-14.49,5.43-21.38,9.77-6.89,4.34-13.38,9.77-19.45,16.28-6.08,6.51-11.37,14.18-15.88,22.99l-15.31,31.54,11.82,20.87,27.83-54.45c2.5-4.88,5.45-9.19,8.87-12.92,3.42-3.73,7.02-6.82,10.81-9.26,3.79-2.44,7.75-4.27,11.88-5.49,4.13-1.22,8.12-1.83,11.97-1.83s7.38.61,10.2,1.83c2.81,1.22,4.9,3.05,6.26,5.49,1.36,2.44,1.81,5.53,1.35,9.26.29,5.11-64.28,120.65-64.28,120.65l3.68,6.96,21.13-.13,57.5-112.51c4.51-8.82,7.05-16.48,7.63-22.99.58-6.51-.39-11.94-2.92-16.28Z" fill="url(#Gradiente_sem_nome_31)"/>
    <path d="M83.14,46.5l-57.5,112.51c-4.51,8.82-7.05,16.48-7.63,22.99-.58,6.51.39,11.94,2.92,16.28,2.52,4.34,6.36,7.6,11.5,9.77,5.15,2.17,11.29,3.26,18.44,3.26s14.41-1.09,21.77-3.26c7.37-2.17,14.49-5.43,21.38-9.77,6.89-4.34,13.38-9.77,19.45-16.28,6.08-6.51,11.37-14.18,15.88-22.99l15.31-31.54-11.82-20.87-27.83,54.45c-2.5,4.88-5.45,9.19-8.87,12.92-3.42,3.73-7.02,6.82-10.81,9.26-3.79,2.44-7.75,4.27-11.88,5.49-4.13,1.22-8.12,1.83-11.97,1.83s-7.38-.61-10.2-1.83c-2.81-1.22-4.9-3.05-6.26-5.49-1.36-2.44-1.81-5.53-1.35-9.26-.29-5.11,64.28-120.65,64.28-120.65l67.06,124.89h28.08L133.19,46.5h-50.05Z" fill="url(#Gradiente_sem_nome_10)"/>
  </g>
  <g>
    <path d="M843.08,142.59c-2.21,0-3.87-.6-4.99-1.79-1.12-1.19-1.68-2.81-1.68-4.85,0-1.47.24-2.75.73-3.82s1.23-1.91,2.22-2.49,2.25-.88,3.78-.88c.79,0,1.51.05,2.16.16s1.25.25,1.82.45v1.96c-1.14-.42-2.4-.62-3.79-.62-1.71,0-2.91.45-3.59,1.35-.69.9-1.03,2.2-1.03,3.9,0,1.54.36,2.72,1.08,3.52.72.81,1.84,1.21,3.35,1.21,1.19,0,2.16-.14,2.9-.42v-3.75h-3.35v-1.48h5.29v6.46c-.43.28-1.05.53-1.84.76-.8.23-1.82.34-3.05.34Z" fill="#17122e"/>
    <path d="M855.18,142.59c-1.72,0-3.06-.42-4-1.27-.94-.85-1.42-2.15-1.42-3.9,0-1.58.4-2.83,1.21-3.75.81-.92,2.03-1.38,3.67-1.38,1.5,0,2.63.39,3.39,1.18.76.79,1.14,1.8,1.14,3.03v1.83h-7.23c.11.96.46,1.62,1.04,1.98.58.36,1.47.54,2.67.54.5,0,1.01-.05,1.54-.15.53-.1.99-.22,1.38-.38v1.67c-.44.19-.96.34-1.53.44-.58.1-1.19.15-1.84.15ZM851.93,136.86h5.23v-.69c0-.68-.19-1.21-.56-1.59-.38-.38-1.01-.57-1.9-.57-1.06,0-1.78.23-2.18.69s-.59,1.18-.59,2.17Z" fill="#17122e"/>
    <path d="M864.56,142.59c-.68,0-1.33-.05-1.95-.15-.62-.1-1.13-.22-1.53-.35v-1.92c.47.18.99.32,1.56.42.57.1,1.11.15,1.62.15.78,0,1.33-.07,1.67-.21.33-.14.5-.41.5-.81,0-.29-.1-.52-.3-.69-.2-.17-.5-.32-.9-.46-.4-.14-.9-.31-1.51-.5-.58-.19-1.09-.41-1.52-.64-.43-.23-.76-.52-1-.89s-.35-.83-.35-1.42c0-.9.33-1.6.98-2.09.65-.49,1.7-.74,3.15-.74.57,0,1.11.04,1.63.12.51.08.95.19,1.31.31v1.9c-.39-.15-.82-.27-1.28-.35-.47-.08-.9-.12-1.3-.12-.72,0-1.27.06-1.64.19-.37.12-.55.38-.55.75s.19.66.57.82c.38.16,1,.38,1.84.66.78.24,1.4.49,1.85.75.46.26.79.58.99.95.2.37.3.84.3,1.43,0,.97-.35,1.7-1.06,2.18-.71.48-1.74.72-3.08.72Z" fill="#17122e"/>
    <path d="M874.39,142.59c-1.06,0-1.84-.28-2.36-.84-.52-.56-.78-1.33-.78-2.3v-5.17h-1.46v-1.77h1.46v-2.27l2.25-.69v2.96h2.63l-.15,1.77h-2.48v5.04c0,.57.13.97.4,1.2.26.23.69.34,1.29.34.38,0,.77-.07,1.19-.21v1.6c-.54.22-1.2.33-1.98.33Z" fill="#17122e"/>
    <path d="M881.19,142.59c-.62,0-1.21-.11-1.74-.33-.54-.22-.96-.56-1.28-1.01-.32-.45-.48-1.01-.48-1.68,0-.94.32-1.71.97-2.28.65-.58,1.64-.86,2.99-.86h3.17v-.44c0-.47-.07-.85-.22-1.12-.15-.28-.41-.48-.79-.6-.38-.12-.94-.19-1.68-.19-1.17,0-2.26.17-3.27.52v-1.69c.44-.18.99-.33,1.62-.44.64-.11,1.33-.17,2.06-.17,1.44,0,2.54.29,3.3.88.76.58,1.14,1.53,1.14,2.85v6.35h-1.94l-.15-1c-.4.39-.9.69-1.49.9-.59.21-1.33.31-2.22.31ZM884.46,131.19c-.38,0-.75-.07-1.11-.21-.37-.14-.72-.27-1.06-.41-.34-.13-.67-.2-.99-.2-.36,0-.69.06-1,.17-.31.11-.58.31-.81.58v-1.67c.18-.19.43-.35.76-.46.33-.11.66-.17,1.01-.17.4,0,.78.07,1.12.2.35.13.69.27,1.02.41.33.14.68.21,1.04.21.72,0,1.28-.26,1.67-.77v1.67c-.14.18-.35.33-.65.46-.29.12-.62.19-1,.19ZM881.79,140.96c.68,0,1.27-.11,1.78-.34.51-.23.92-.54,1.24-.93v-1.73h-3.13c-.67,0-1.15.13-1.45.39-.3.26-.45.65-.45,1.18s.17.88.52,1.1c.35.22.84.33,1.48.33Z" fill="#17122e"/>
    <path d="M894.23,142.59c-1.78,0-3.08-.44-3.91-1.33-.83-.89-1.24-2.16-1.24-3.81s.42-2.92,1.25-3.81c.83-.89,2.13-1.33,3.9-1.33s3.08.44,3.92,1.33c.83.89,1.25,2.16,1.25,3.81s-.41,2.92-1.24,3.81c-.83.89-2.14,1.33-3.93,1.33ZM894.23,140.67c1.04,0,1.78-.25,2.22-.76.44-.51.66-1.33.66-2.47s-.22-1.96-.66-2.46-1.18-.75-2.22-.75-1.76.25-2.2.75-.66,1.32-.66,2.46.22,1.96.66,2.47c.44.51,1.17.76,2.2.76Z" fill="#17122e"/>
    <path d="M911.4,142.59c-1.72,0-3.06-.42-4-1.27-.94-.85-1.42-2.15-1.42-3.9,0-1.58.4-2.83,1.21-3.75.81-.92,2.03-1.38,3.67-1.38,1.5,0,2.63.39,3.39,1.18.76.79,1.14,1.8,1.14,3.03v1.83h-7.23c.11.96.46,1.62,1.04,1.98.58.36,1.47.54,2.67.54.5,0,1.01-.05,1.54-.15.53-.1.99-.22,1.38-.38v1.67c-.44.19-.96.34-1.53.44-.58.1-1.19.15-1.84.15ZM908.15,136.86h5.23v-.69c0-.68-.19-1.21-.56-1.59-.38-.38-1.01-.57-1.9-.57-1.06,0-1.78.23-2.18.69s-.59,1.18-.59,2.17Z" fill="#17122e"/>
    <path d="M928.32,142.59c-2.12,0-3.72-.56-4.77-1.68s-1.58-2.85-1.58-5.2.53-4.22,1.58-5.31c1.06-1.1,2.65-1.65,4.77-1.65s3.73.55,4.78,1.65c1.05,1.1,1.57,2.87,1.57,5.31s-.52,4.08-1.57,5.2c-1.05,1.12-2.64,1.68-4.78,1.68ZM928.32,140.67c1.4,0,2.43-.39,3.09-1.16.66-.77.99-2.04.99-3.8,0-1.86-.33-3.16-.99-3.91s-1.69-1.11-3.09-1.11-2.41.37-3.07,1.11c-.66.74-.99,2.05-.99,3.91,0,1.76.33,3.03.99,3.8.66.77,1.68,1.16,3.07,1.16Z" fill="#17122e"/>
    <path d="M936.88,146.88v-14.38h1.96l.12.98c.44-.4.93-.7,1.46-.9.53-.19,1.15-.29,1.88-.29,1.42,0,2.52.39,3.31,1.16.79.77,1.19,2.05,1.19,3.82s-.41,3.11-1.23,3.99c-.82.88-1.94,1.32-3.35,1.32-1.19,0-2.22-.28-3.06-.83v5.13h-2.27ZM941.63,140.88c1.92,0,2.88-1.21,2.88-3.63,0-1.17-.22-2-.65-2.49-.43-.49-1.15-.74-2.17-.74s-1.86.35-2.54,1.04v4.94c.32.26.68.48,1.07.64.4.16.86.24,1.41.24Z" fill="#17122e"/>
    <path d="M954.01,142.59c-1.72,0-3.06-.42-4-1.27-.94-.85-1.42-2.15-1.42-3.9,0-1.58.4-2.83,1.21-3.75.81-.92,2.03-1.38,3.67-1.38,1.5,0,2.63.39,3.39,1.18.76.79,1.14,1.8,1.14,3.03v1.83h-7.23c.11.96.46,1.62,1.04,1.98.58.36,1.47.54,2.67.54.5,0,1.01-.05,1.54-.15.53-.1.99-.22,1.38-.38v1.67c-.44.19-.96.34-1.53.44-.58.1-1.19.15-1.84.15ZM950.76,136.86h5.23v-.69c0-.68-.19-1.21-.56-1.59-.38-.38-1.01-.57-1.9-.57-1.06,0-1.78.23-2.18.69s-.59,1.18-.59,2.17Z" fill="#17122e"/>
    <path d="M960.2,142.38v-9.88h2.08l.12,1.15c.47-.31,1.03-.58,1.69-.83s1.3-.42,1.94-.52v1.73c-.39.07-.81.17-1.26.3-.45.13-.88.28-1.28.44-.4.16-.74.32-1.02.49v7.13h-2.27Z" fill="#17122e"/>
    <path d="M970.13,142.59c-.62,0-1.21-.11-1.74-.33-.54-.22-.96-.56-1.28-1.01-.32-.45-.48-1.01-.48-1.68,0-.94.32-1.71.97-2.28.65-.58,1.64-.86,2.99-.86h3.17v-.44c0-.47-.07-.85-.22-1.12-.15-.28-.41-.48-.79-.6-.38-.12-.94-.19-1.68-.19-1.17,0-2.26.17-3.27.52v-1.69c.44-.18.99-.33,1.62-.44.64-.11,1.33-.17,2.06-.17,1.44,0,2.54.29,3.3.88.76.58,1.14,1.53,1.14,2.85v6.35h-1.94l-.15-1c-.4.39-.9.69-1.49.9-.59.21-1.33.31-2.22.31ZM970.74,140.96c.68,0,1.27-.11,1.78-.34.51-.23.92-.54,1.24-.93v-1.73h-3.13c-.67,0-1.15.13-1.45.39-.3.26-.45.65-.45,1.18s.17.88.52,1.1c.35.22.84.33,1.48.33Z" fill="#17122e"/>
    <path d="M982.68,147.38c-.22,0-.49-.02-.81-.05-.32-.04-.56-.07-.71-.11v-1.23c.4.11.83.17,1.29.17.62,0,1.08-.06,1.35-.18.28-.12.42-.37.42-.76s-.15-.63-.44-.72c-.29-.09-.71-.14-1.25-.14h-.83l.56-1.83c-1.4-.17-2.46-.68-3.17-1.55s-1.06-2.05-1.06-3.53c0-1.74.49-3.03,1.47-3.88.98-.85,2.29-1.27,3.93-1.27.68,0,1.25.05,1.72.15.47.1.91.25,1.34.46v1.69c-.72-.36-1.6-.54-2.63-.54-1.14,0-2.01.25-2.62.76-.61.51-.92,1.39-.92,2.64,0,1.18.27,2.05.81,2.59.54.55,1.44.82,2.69.82.99,0,1.88-.19,2.69-.56v1.73c-.81.33-1.72.52-2.75.56l-.27.77c.75,0,1.32.17,1.7.5.38.33.57.79.57,1.38,0,.68-.25,1.21-.74,1.58-.49.38-1.27.56-2.34.56Z" fill="#17122e"/>
    <path d="M991.8,142.59c-.62,0-1.21-.11-1.74-.33-.54-.22-.96-.56-1.28-1.01-.32-.45-.48-1.01-.48-1.68,0-.94.32-1.71.97-2.28.65-.58,1.64-.86,2.99-.86h3.17v-.44c0-.47-.07-.85-.22-1.12-.15-.28-.41-.48-.79-.6-.38-.12-.94-.19-1.68-.19-1.17,0-2.26.17-3.27.52v-1.69c.44-.18.99-.33,1.62-.44.64-.11,1.33-.17,2.06-.17,1.44,0,2.54.29,3.3.88.76.58,1.14,1.53,1.14,2.85v6.35h-1.94l-.15-1c-.4.39-.9.69-1.49.9-.59.21-1.33.31-2.22.31ZM995.08,131.19c-.38,0-.75-.07-1.11-.21-.37-.14-.72-.27-1.06-.41-.34-.13-.67-.2-.99-.2-.36,0-.69.06-1,.17-.31.11-.58.31-.81.58v-1.67c.18-.19.43-.35.76-.46.33-.11.66-.17,1.01-.17.4,0,.78.07,1.12.2.35.13.69.27,1.02.41.33.14.68.21,1.04.21.72,0,1.28-.26,1.67-.77v1.67c-.14.18-.35.33-.65.46-.29.12-.62.19-1,.19ZM992.41,140.96c.68,0,1.27-.11,1.78-.34.51-.23.92-.54,1.24-.93v-1.73h-3.13c-.67,0-1.15.13-1.45.39-.3.26-.45.65-.45,1.18s.17.88.52,1.1c.35.22.84.33,1.48.33Z" fill="#17122e"/>
    <path d="M1004.85,142.59c-1.78,0-3.08-.44-3.91-1.33-.83-.89-1.24-2.16-1.24-3.81s.42-2.92,1.25-3.81c.83-.89,2.13-1.33,3.9-1.33s3.08.44,3.92,1.33c.83.89,1.25,2.16,1.25,3.81s-.41,2.92-1.24,3.81c-.83.89-2.14,1.33-3.93,1.33ZM1004.85,140.67c1.04,0,1.78-.25,2.22-.76.44-.51.66-1.33.66-2.47s-.22-1.96-.66-2.46-1.18-.75-2.22-.75-1.76.25-2.2.75-.66,1.32-.66,2.46.22,1.96.66,2.47c.44.51,1.17.76,2.2.76Z" fill="#17122e"/>
    <path d="M836.45,167.38v-13.42h3.92v13.42h-3.92Z" fill="#17122e"/>
    <path d="M842.24,167.38v-9.88h3.63l.1.79c.43-.29.91-.53,1.45-.72s1.12-.28,1.76-.28,1.14.09,1.5.27c.36.18.65.44.88.79.44-.32.95-.58,1.51-.77s1.23-.29,1.99-.29c1.15,0,2,.3,2.54.91.54.6.81,1.52.81,2.76v6.42h-3.85v-5.96c0-.44-.09-.76-.27-.95s-.48-.28-.9-.28c-.54,0-.99.19-1.33.58.03.18.04.35.04.51v6.09h-3.63v-6.02c0-.4-.07-.7-.21-.89-.14-.19-.4-.28-.79-.28-.26,0-.52.07-.77.21s-.47.31-.67.5v6.48h-3.79Z" fill="#17122e"/>
    <path d="M865.41,167.59c-1.97,0-3.43-.44-4.37-1.31-.94-.88-1.41-2.15-1.41-3.83s.47-2.94,1.42-3.82c.94-.88,2.4-1.32,4.35-1.32s3.43.44,4.39,1.32c.95.88,1.43,2.16,1.43,3.82s-.47,2.96-1.42,3.83c-.94.88-2.41,1.31-4.4,1.31ZM865.41,164.74c.64,0,1.1-.18,1.39-.54.28-.36.43-.94.43-1.75s-.14-1.37-.43-1.74c-.28-.37-.75-.55-1.39-.55s-1.08.18-1.35.55c-.28.37-.42.95-.42,1.74s.14,1.39.42,1.75c.28.36.73.54,1.35.54Z" fill="#17122e"/>
    <path d="M879.27,167.59c-.64,0-1.2-.09-1.68-.26-.48-.17-.92-.41-1.32-.72l-.19.77h-3.4v-14.04h3.92v4.52c.33-.18.73-.32,1.18-.42.45-.1.91-.15,1.36-.15,1.47,0,2.63.39,3.47,1.18.84.79,1.26,2.08,1.26,3.89s-.42,3.08-1.25,3.94-1.95,1.29-3.35,1.29ZM878.14,164.76c.61,0,1.05-.18,1.32-.55.27-.37.41-.97.41-1.8s-.14-1.44-.43-1.77c-.29-.33-.72-.5-1.3-.5-.64,0-1.15.17-1.54.52v3.5c.43.4.94.6,1.54.6Z" fill="#17122e"/>
    <path d="M885.92,167.38v-7.02h-1.44l.33-2.85h5.02v9.88h-3.92ZM885.6,156.19v-2.83h4.23v2.83h-4.23Z" fill="#17122e"/>
    <path d="M895.06,167.59c-1.21,0-2.07-.26-2.58-.77-.51-.51-.77-1.32-.77-2.42v-11.06h3.92v10.63c0,.31.06.51.19.61.12.1.32.16.58.16.18,0,.36-.01.53-.04.17-.03.34-.07.49-.12v2.6c-.36.14-.71.24-1.05.31-.34.07-.77.1-1.3.1Z" fill="#17122e"/>
    <path d="M898.63,167.38v-7.02h-1.44l.33-2.85h5.02v9.88h-3.92ZM898.31,156.19v-2.83h4.23v2.83h-4.23Z" fill="#17122e"/>
    <path d="M907.5,167.59c-.62,0-1.21-.11-1.74-.33-.54-.22-.96-.57-1.28-1.04-.32-.47-.48-1.07-.48-1.79,0-1.04.35-1.85,1.04-2.43.69-.58,1.74-.86,3.15-.86h2.56v-.19c0-.39-.16-.67-.48-.85-.32-.18-.88-.27-1.69-.27-1.14,0-2.26.17-3.38.52v-2.35c.5-.19,1.12-.36,1.88-.49.75-.13,1.51-.2,2.29-.2,1.57,0,2.81.32,3.73.96.92.64,1.38,1.65,1.38,3.04v6.08h-3.42l-.19-.79c-.35.31-.8.55-1.34.73s-1.23.27-2.03.27ZM908.83,165.3c.44,0,.82-.08,1.14-.23.31-.15.57-.34.78-.56v-1.23h-1.9c-.86,0-1.29.34-1.29,1.02s.42,1,1.27,1ZM907.96,156.51l1.83-4.29h3.04l-2,4.29h-2.88Z" fill="#17122e"/>
    <path d="M916.25,167.38v-9.88h3.77l.1.79c.4-.24.92-.45,1.54-.65s1.26-.31,1.9-.35v2.92c-.36.03-.75.08-1.18.15-.42.07-.83.16-1.23.26-.4.1-.73.22-.99.34v6.42h-3.92Z" fill="#17122e"/>
    <path d="M925.67,167.38v-7.02h-1.44l.33-2.85h5.02v9.88h-3.92ZM925.36,156.19v-2.83h4.23v2.83h-4.23Z" fill="#17122e"/>
    <path d="M934.55,167.59c-.62,0-1.21-.11-1.74-.33-.54-.22-.96-.57-1.28-1.04-.32-.47-.48-1.07-.48-1.79,0-1.04.35-1.85,1.04-2.43.69-.58,1.74-.86,3.15-.86h2.56v-.19c0-.39-.16-.67-.48-.85-.32-.18-.88-.27-1.69-.27-1.14,0-2.26.17-3.38.52v-2.35c.5-.19,1.12-.36,1.88-.49.75-.13,1.51-.2,2.29-.2,1.57,0,2.81.32,3.73.96.92.64,1.38,1.65,1.38,3.04v6.08h-3.42l-.19-.79c-.35.31-.8.55-1.34.73s-1.23.27-2.03.27ZM935.88,165.3c.44,0,.82-.08,1.14-.23.31-.15.57-.34.78-.56v-1.23h-1.9c-.86,0-1.29.34-1.29,1.02s.42,1,1.27,1Z" fill="#17122e"/>
  </g>
</svg>