<?xml version="1.0" encoding="UTF-8"?>
<svg id="Camada_1" data-name="Camada 1" xmlns="http://www.w3.org/2000/svg" viewBox="0 0 500 500">
  <g id="_baa072ff" data-name="#baa072ff">
    <path d="M245.42,10h3.15c15.6.4,31.27,3.29,45.52,9.8,19.07,8.54,35.4,22.63,47.63,39.48,20.38,27.87,25.57,65.19,16.57,98.2-8.11,29.27-28.94,54.26-55.09,69.34-15.22,8.63-32.56,13.46-50.04,14.14-21.47,1.14-43.41-3.35-62.17-13.99-22.68-13.03-41.32-33.41-51.32-57.67-12.41-31.35-10.94-68.25,5.03-98.07,12.54-22.62,32.36-41.35,56.06-51.85,14.03-6.2,29.37-8.99,44.65-9.38Z" fill="#baa072"/>
    <path d="M100.94,259.06c15.91-11.77,35.89-17.56,55.6-17.07,3.47.22,6.71,1.62,9.76,3.2,12.13,6.67,23.02,15.41,35.4,21.63,12.23,5.35,24.99,9.99,38.38,11.24,16.78,1.83,33.86-1.18,49.4-7.62,13.02-4.26,23.88-12.83,35.4-19.95,5.78-3.5,11.54-7.8,18.47-8.48,23.44-.66,47.41,7.72,64.21,24.32,17.34,17.35,27.62,40.51,33.76,63.96,5.8,23.09,8.63,46.88,8.82,70.69.43,12.9-.66,26.03-5.1,38.24-5.46,15.58-16.45,29.03-30.41,37.8-14.12,8.98-30.97,12.71-47.55,13h-234.19c-18.82-.27-38.05-5.24-53.1-16.92-13.85-10.43-23.64-25.91-27.44-42.8-1.7-7.03-2.31-14.25-2.57-21.46v-5.5c.27-16.82,1.3-33.67,4.19-50.26,3.25-19.19,7.96-38.43,16.93-55.82,6.98-14.73,16.89-28.37,30.04-38.18Z" fill="#baa072"/>
  </g>
</svg>