<?xml version="1.0" encoding="UTF-8"?>
<svg id="Camada_1" data-name="Camada 1" xmlns="http://www.w3.org/2000/svg" viewBox="0 0 500 500">
  <g id="Camada_1-2" data-name="Camada_1">
    <path d="M358.16,99.35c.21-9.1.44-18.23.68-27.33,26.03,0,52.09-.03,78.15-.1,0,40.5-2.77,81.37,2.7,121.59,12.12,20.58,25.39,31.02,37.51,48.96,7.86,11.64,5.85,23.19-9.2,27-8.78,2.22-21.38,4.4-30.68,6.31-1.07,59.53,1.59,119.37-.66,178.78-3.18,34.23-24.07,35.72-53.18,35-28.75-.72-57.58-.33-86.34-.32-.1-41.49,1.85-83.15-2.6-124.43-4.93-22.85-28.83-40.15-52.4-36.25-17.82,4.07-35.88,17.1-38.51,36.32-4.55,41.28-2.67,82.91-2.77,124.36-17.56.14-110.14,2.44-119.03-1.56-22.4-10.06-19.71-31.74-20.57-52.53-2.04-49.29-.64-98.79-.35-148.11.06-13.17-2.88-10.48-17.48-14.11-24.18-6.01-33.43-16.96-16.54-38.08,31.2-39.01,64.77-75.9,96.42-114.31,4.59-5.62,9.12-11.28,13.63-16.97,22.6-27.14,71.33-90.31,107.61-93.37,23.93-2.01,39.21,12.51,56.42,27.79,9.95,8.83,19.45,18.16,28.48,27.93,9.9,10.86,19.31,22.15,28.71,33.44h0Z" fill="#baa072"/>
  </g>
</svg>