<?xml version="1.0" encoding="UTF-8"?>
<!DOCTYPE svg PUBLIC "-//W3C//DTD SVG 1.1//EN" "http://www.w3.org/Graphics/SVG/1.1/DTD/svg11.dtd">
<!-- Creator: CorelDRAW -->
<svg xmlns="http://www.w3.org/2000/svg" xml:space="preserve" width="800mm" height="250mm" version="1.1" style="shape-rendering:geometricPrecision; text-rendering:geometricPrecision; image-rendering:optimizeQuality; fill-rule:evenodd; clip-rule:evenodd"
viewBox="0 0 80000 25000"
 xmlns:xlink="http://www.w3.org/1999/xlink"
 xmlns:xodm="http://www.corel.com/coreldraw/odm/2003">
 <defs>
  <style type="text/css">
   <![CDATA[
    .fil0 {fill:black;fill-rule:nonzero}
    .fil1 {fill:#BAA072;fill-rule:nonzero}
    .fil2 {fill:#BAA072;fill-rule:nonzero}
   ]]>
  </style>
 </defs>
 <g id="Camada_x0020_1">
  <metadata id="CorelCorpID_0Corel-Layer"/>
  <path class="fil0" d="M58370.54 10067.01c-177.9,-1764.65 302.49,-3547.33 1344.31,-4982.19 1262.63,-1738.97 3215.4,-2894.46 5278.8,-3416.8 2816.23,-700.07 5915.96,-246.1 8380.82,1296.58 1802.05,1156.65 3134,3050.32 3512.85,5167.5 246.69,1404.4 62.65,2789.29 -482.12,4102.71 -1400.46,3292.39 -4961.66,5019.28 -8399.73,5129.21 -2392.69,76.5 -4769.53,-594.93 -6663.09,-2084.89 -636.56,-503.46 -1213.28,-1087.33 -1683.35,-1750.1 -735.26,-1043.44 -1153.13,-2194.53 -1288.49,-3462.02zm14902 4351.41c2185.79,-2685.87 2363.13,-6789.78 381.48,-9632.6 -1744.64,-2485.29 -4754.13,-3358.05 -7658.48,-2784.11 -2888.55,601.87 -4799.61,2470.74 -5459.28,5351.5 -865.65,3954.98 726.73,8072.09 4890.55,9187.43 2848.35,755.65 5861.15,159.66 7845.73,-2122.22z"/>
  <path class="fil0" d="M27739.69 2240.02c2337.03,6.31 5497.28,978.43 5507.14,3834.85 2.57,744.69 -226.72,1457.79 -659.88,2062.97 -265.43,355.46 -580.56,632.59 -956.7,866.14 -777.98,465.25 -1813.88,743.22 -2699.4,929.79 -67.13,14.12 -134.12,27.05 -201.61,39.48 5526.24,6129.41 0,0 5526.24,6129.41 -714.69,1.16 -1429.31,1.86 -2143.92,-0.46 -5231.32,-5996.13 0,0 -5231.32,-5996.13 -1264.64,1.62 -2529.1,4.23 -3793.53,-2.74 -3.13,1998.59 20.25,4004.15 10.67,6000.28 -546.57,-0.71 -1092.82,0.91 -1639.4,-0.95 -3.76,-3788.64 4.51,-7574.88 6.73,-11363.12 0.49,-839.27 -5.32,-1677.41 -24.83,-2516.5 6299.81,16.98 0,0 6299.81,16.98zm-4650.9 493.81c2.11,2294.35 -4.65,4588.7 -0.21,6883.33 1413.73,4.68 2884.95,35.89 4293.11,-7.4 2178.86,-98.55 4201.72,-1128.33 4090.7,-3608.58 -66.08,-1476.11 -981.91,-2551.04 -2367.96,-2999.31 -1157.67,-356.3 -2556.26,-284.03 -3762.08,-282.97 -751.39,-0.53 -1502.24,3.63 -2253.56,14.93z"/>
  <path class="fil0" d="M9994.87 2236.99c399.77,-16.94 800.06,-24.62 1200.29,-18.35 6882.34,13883.31 0,0 6882.34,13883.31 -618.07,-5.11 -1236.07,-7.18 -1854.15,1.66 -849.33,-1715.69 -1660.39,-3485.06 -2551.36,-5174.3 -3265.87,-465.28 -6235.88,238.03 -8168.36,1554.66 -1856.22,3618.23 0,0 -1856.22,3618.23 -2.43,4.75 -591.66,0.39 -652.41,0.7 2363.06,-4610.36 4687.17,-9230.37 6999.87,-13865.91l0 0zm-3823.29 8887.73c-236.16,458.1 -210.56,322.28 218.13,109.19 2260.22,-1060.56 4404.98,-1222.58 6860.01,-999.88 139.23,12.96 128.91,39.06 35.18,-141.06 -1123.32,-2158.81 -2150.85,-4380.92 -3275.2,-6547.87 -1292.75,2520.01 -2540.3,5062.46 -3838.12,7579.62z"/>
  <path class="fil0" d="M49105.69 16806.49c-1496.05,465.92 -2750.82,654.99 -4322.31,500.69 -2303.26,-236.33 -4344.12,-1199.1 -5898.29,-2931.72 -419.01,-467.12 -863.1,-1191.41 -1126.47,-1763.07 -1444.57,-3161.36 -395.39,-6569.92 2084.83,-8861.68 2024.78,-1870.94 4828.99,-2674.9 7545.61,-2331.41 671.8,84.94 1318.42,234.96 1961.08,447.68 59.98,20.01 119.54,40.58 179.17,61.51 4011.01,1469.09 6461.42,5328.86 5184.97,9569.31 -820.14,2724.58 -2971.5,4385.22 -5572.76,5296.44l-35.83 12.25zm1884.06 -12976.83c-1784.55,-1809.38 -4491.39,-2363.85 -6907.11,-1691.81 -1081.45,300.86 -1987.74,838.06 -2800.56,1608.29 -2546.2,2542.31 -2887.91,6949.27 -1098.53,9998.65 1358.35,2314.84 3670.11,3248.01 6280.54,3109.18 2002.24,-116.56 3890.53,-959.91 5110.89,-2584.88 284.55,-378.9 516.23,-774.03 718.61,-1202.13 1236.85,-2638.19 1064.15,-6021.28 -630.27,-8423.14 -206.32,-290.54 -427.65,-556.41 -673.57,-814.16z"/>
  <path class="fil1" d="M47174.41 16007.73c-130.04,14.94 175.72,-99.18 191.96,-106.16 1918.64,-850.46 3336.39,-2373.31 4013.81,-4365.56 744.27,-2188.86 364.23,-4551.75 -894.92,-6470.64l-21.03 -32.01c-768.47,-1164.08 -1805.61,-1819.21 -3030.06,-2423.51 -589.19,-290.76 771.64,220.77 816.55,241.69 3792.86,1767.96 5164.43,6027.51 3545.99,9805.15 -833.21,1910.4 -2424.42,3030.45 -4468.17,3331.78l-39.13 5.07 -75.09 9.47 -39.91 4.72z"/>
  <path class="fil0" d="M53585.44 17154.41c695.35,1137.49 1613.29,2277.73 2921.96,2714.51 -3620.76,3.91 0,0 -3620.76,3.91 -530.3,-543.81 -1046.21,-1124.6 -1601.49,-1640.31 -915.6,-850.37 -1706.95,-748.29 -2928.08,-740.77 -198.86,-0.05 -397.72,-0.29 -596.58,-0.66 1.35,-327.78 0,0 1.35,-327.78 1928.62,-2.95 3857.24,-5.9 5785.86,-8.84l37.74 -0.06z"/>
  <polygon class="fil2" points="3087.71,23568.54 3087.71,18564.35 3545.24,18564.35 3545.24,20851.98 6090.22,20851.98 6090.22,18564.35 6547.75,18564.35 6547.75,23568.54 6090.22,23568.54 6090.22,21266.61 3545.24,21266.61 3545.24,23568.54 "/>
  <path id="_1" class="fil2" d="M10956.46 23668.62c-586.2,0 -1053.26,-172.76 -1401.17,-518.29 -347.91,-345.52 -521.86,-851.9 -521.86,-1519.13l0 -1129.51c0,-667.23 173.95,-1173.6 521.86,-1519.13 347.91,-345.53 814.97,-518.29 1401.17,-518.29 586.21,0 1053.27,172.76 1401.18,518.29 347.91,345.53 521.86,851.9 521.86,1519.13l0 1129.51c0,667.23 -173.95,1173.61 -521.86,1519.13 -347.91,345.53 -814.97,518.29 -1401.18,518.29zm0 -414.63c467.06,0 828.08,-140.59 1083.05,-421.78 254.98,-281.19 382.47,-676.76 382.47,-1186.71l0 -1158.11c0,-509.95 -127.49,-905.52 -382.47,-1186.71 -254.97,-281.19 -615.99,-421.78 -1083.05,-421.78 -462.29,0 -822.11,140.59 -1079.47,421.78 -257.36,281.19 -386.04,676.76 -386.04,1186.71l0 1158.11c0,509.95 128.68,905.52 386.04,1186.71 257.36,281.19 617.18,421.78 1079.47,421.78z"/>
  <path id="_2" class="fil2" d="M17123.79 23668.62c-357.44,0 -670.79,-63.14 -940.07,-189.44 -269.27,-126.3 -480.16,-318.12 -632.67,-575.48 -152.51,-257.36 -228.76,-581.44 -228.76,-972.24l0 -3367.11 457.52 0 0 3367.11c0,447.99 117.96,780.41 353.87,997.26 235.91,216.85 565.95,325.27 990.11,325.27 424.17,0 754.21,-108.42 990.12,-325.27 235.91,-216.85 353.87,-549.27 353.87,-997.26l0 -3367.11 457.52 0 0 3367.11c0,390.8 -75.06,714.88 -225.19,972.24 -150.12,257.36 -361.01,449.18 -632.67,575.48 -271.65,126.3 -586.2,189.44 -943.65,189.44z"/>
  <path id="_3" class="fil2" d="M23162.44 23668.62c-357.44,0 -676.75,-63.14 -957.94,-189.44 -281.19,-126.3 -502.8,-319.32 -664.84,-579.06 -162.04,-259.74 -243.06,-589.78 -243.06,-990.11l0 -135.83 457.52 0 0 135.83c0,462.29 132.26,804.24 396.76,1025.86 264.51,221.61 601.7,332.42 1011.56,332.42 414.64,0 733.95,-96.51 957.95,-289.53 224,-193.02 335.99,-439.65 335.99,-739.9 0,-200.17 -48.85,-361.02 -146.55,-482.55 -97.7,-121.53 -233.53,-219.23 -407.48,-293.1 -173.96,-73.87 -375.31,-139.41 -604.08,-196.6l-457.52 -114.38c-271.66,-71.49 -514.72,-160.85 -729.18,-268.08 -214.47,-107.23 -383.66,-247.83 -507.57,-421.78 -123.92,-173.96 -185.87,-396.76 -185.87,-668.42 0,-271.65 70.29,-507.57 210.89,-707.73 140.59,-200.17 334.8,-353.87 582.63,-461.1 247.83,-107.24 536.16,-160.85 865.01,-160.85 328.85,0 625.52,57.19 890.03,171.57 264.51,114.38 474.21,282.38 629.1,503.99 154.89,221.62 232.33,499.23 232.33,832.84l0 336 -457.52 0 0 -336c0,-262.12 -57.19,-474.2 -171.57,-636.24 -114.39,-162.04 -269.28,-281.19 -464.68,-357.45 -195.4,-76.25 -414.63,-114.38 -657.69,-114.38 -347.91,0 -635.06,79.83 -861.44,239.49 -226.38,159.66 -339.57,389.61 -339.57,689.86 0,200.17 46.47,359.83 139.41,478.97 92.93,119.15 223.99,214.47 393.18,285.96 169.19,71.49 368.17,135.83 596.93,193.02l457.53 114.38c262.12,61.96 502.8,144.17 722.03,246.63 219.23,102.47 395.57,243.06 529.01,421.79 133.45,178.72 200.17,413.44 200.17,704.16 0,290.72 -72.68,543.31 -218.04,757.77 -145.36,214.47 -349.1,380.08 -611.23,496.85 -262.12,116.76 -569.52,175.14 -922.2,175.14z"/>
  <polygon id="_4" class="fil2" points="27342.4,23568.54 27342.4,18564.35 27799.93,18564.35 27799.93,23568.54 "/>
  <polygon id="_5" class="fil2" points="30442.88,23568.54 30442.88,18564.35 31350.78,18564.35 33395.35,23296.88 33481.14,23296.88 33481.14,18564.35 33938.66,18564.35 33938.66,23568.54 33030.76,23568.54 30986.19,18828.86 30900.41,18828.86 30900.41,23568.54 "/>
  <path id="_6" class="fil2" d="M38325.93 23668.62c-381.27,0 -714.89,-77.44 -1000.84,-232.33 -285.95,-154.9 -507.57,-383.66 -664.84,-686.29 -157.28,-302.64 -235.91,-675.57 -235.91,-1118.8l0 -1129.51c0,-667.23 175.14,-1173.6 525.44,-1519.13 350.29,-345.53 818.54,-518.29 1404.74,-518.29 581.44,0 1021.1,162.04 1318.96,486.12 297.87,324.08 446.81,755.39 446.81,1293.94l0 35.74 -457.53 0 0 -50.04c0,-262.12 -45.28,-494.46 -135.83,-697.01 -90.55,-202.55 -232.33,-362.21 -425.35,-478.97 -193.02,-116.77 -442.04,-175.15 -747.06,-175.15 -462.29,0 -823.31,140.59 -1083.05,421.78 -259.74,281.19 -389.61,676.76 -389.61,1186.71l0 1158.11c0,509.95 129.87,905.52 389.61,1186.71 259.74,281.19 620.76,421.78 1083.05,421.78 452.76,0 786.37,-131.06 1000.84,-393.19 214.47,-262.12 321.7,-614.8 321.7,-1058.02l0 -142.98 -1651.38 0 0 -400.34 2094.61 0 0 2309.08 -414.64 0 0 -564.76 -85.78 0c-57.19,114.38 -138.21,222.81 -243.06,325.27 -104.85,102.47 -241.87,184.68 -411.06,246.64 -169.19,61.96 -382.46,92.93 -639.82,92.93z"/>
 </g>
</svg>
