<?xml version="1.0" encoding="UTF-8"?>
<svg id="Camada_1" data-name="Camada 1" xmlns="http://www.w3.org/2000/svg" viewBox="0 0 2097.64 544.94">
  <g id="Camada_1-2" data-name="Camada_1">
    <path d="M-.13,544.01v-56.8h5.19v56.8s-5.19,0-5.19,0ZM1282.32,544.01l18.58-56.8h9.25l18.58,56.8h-5.44l-4.87-15.09h-25.8l-4.87,15.09h-5.44ZM1294.08,524.21h22.88l-10.95-33.92h-.97l-10.95,33.92h0ZM1251.34,544.01v-56.8h5.19v56.8h-5.19ZM1183.6,544.01v-56.8h22.23c3.52,0,6.61.6,9.29,1.79,2.68,1.19,4.79,2.91,6.33,5.15,1.54,2.24,2.31,4.96,2.31,8.15v.81c0,3.84-.92,6.86-2.76,9.05-1.84,2.19-4,3.64-6.49,4.34v.97c1.89.05,3.49.65,4.79,1.78,1.3,1.14,1.95,2.95,1.95,5.44v19.31h-5.19v-18.74c0-1.73-.47-3.06-1.42-3.98-.95-.92-2.37-1.38-4.26-1.38h-21.58v24.1h-5.19,0ZM1188.79,515.2h16.55c4.22,0,7.48-.99,9.78-2.96,2.3-1.97,3.45-4.8,3.45-8.48v-.41c0-3.68-1.12-6.5-3.37-8.48-2.24-1.97-5.53-2.96-9.86-2.96h-16.55v23.29h0ZM1111.4,544.01l18.58-56.8h9.25l18.58,56.8h-5.44l-4.87-15.09h-25.8l-4.87,15.09h-5.44ZM1123.16,524.21h22.88l-10.95-33.92h-.97l-10.95,33.92ZM1130.79,482.5l5.36-9.57h6.33l-6.65,9.57h-5.03ZM1080.41,544.01v-56.8h5.19v56.8h-5.19ZM1019.49,544.01v-56.8h5.19v52.09h29.86v4.71h-35.05ZM983.8,544.01v-56.8h5.19v56.8h-5.19ZM910.63,544.01v-4.71h8.11v-47.38h-8.11v-4.71h28.15c3.25,0,6.14.6,8.68,1.79,2.54,1.19,4.53,2.85,5.96,4.99,1.43,2.14,2.15,4.61,2.15,7.42v.65c0,2.65-.51,4.84-1.54,6.57-1.03,1.73-2.27,3.08-3.73,4.06-1.46.97-2.89,1.68-4.3,2.11v.97c1.41.32,2.85.99,4.34,1.99,1.49,1,2.73,2.37,3.73,4.1,1,1.73,1.5,3.92,1.5,6.57v.81c0,3.08-.74,5.73-2.23,7.95-1.49,2.22-3.52,3.91-6.09,5.07-2.57,1.16-5.48,1.74-8.72,1.74h-27.91,0ZM923.93,539.3h14.12c4.06,0,7.13-.95,9.21-2.84,2.08-1.89,3.12-4.44,3.12-7.63v-.65c0-3.19-1.04-5.73-3.12-7.63-2.08-1.89-5.15-2.84-9.21-2.84h-14.12v21.58ZM923.93,513.01h14.44c3.73,0,6.67-.93,8.8-2.8,2.14-1.87,3.2-4.31,3.2-7.34v-.81c0-3.03-1.07-5.48-3.2-7.34-2.14-1.87-5.07-2.8-8.8-2.8h-14.44v21.1h0ZM865.28,545.14c-6.65,0-11.95-1.96-15.9-5.88-3.95-3.92-5.92-9.67-5.92-17.24v-12.82c0-7.57,1.97-13.32,5.92-17.24,3.95-3.92,9.25-5.88,15.9-5.88s11.95,1.96,15.9,5.88c3.95,3.92,5.92,9.67,5.92,17.24v12.82c0,7.57-1.97,13.32-5.92,17.24-3.95,3.92-9.25,5.88-15.9,5.88ZM865.28,540.44c5.3,0,9.4-1.6,12.29-4.79,2.89-3.19,4.34-7.68,4.34-13.47v-13.14c0-5.79-1.45-10.28-4.34-13.47-2.89-3.19-6.99-4.79-12.29-4.79s-9.33,1.6-12.25,4.79c-2.92,3.19-4.38,7.68-4.38,13.47v13.14c0,5.79,1.46,10.28,4.38,13.47,2.92,3.19,7,4.79,12.25,4.79ZM759.08,544.01v-56.8h10.14l17.2,53.71h.97l17.2-53.71h10.14v56.8h-5.03v-53.71h-.97l-17.2,53.71h-9.25l-17.2-53.71h-.97v53.71h-5.03ZM723.4,544.01v-56.8h5.19v56.8h-5.19ZM631.4,544.01l18.58-56.8h9.25l18.58,56.8h-5.44l-4.87-15.09h-25.8l-4.87,15.09h-5.44ZM643.16,524.21h22.88l-10.95-33.92h-.97l-10.95,33.92ZM600.41,544.01v-56.8h5.19v56.8h-5.19ZM551.99,545.14c-6.65,0-11.97-1.96-15.94-5.88-3.98-3.92-5.96-9.67-5.96-17.24v-12.82c0-7.57,1.99-13.32,5.96-17.24,3.98-3.92,9.29-5.88,15.94-5.88s11.64,1.85,15.13,5.56c3.49,3.71,5.23,8.75,5.23,15.13v.41h-5.19v-.57c0-4.65-1.23-8.45-3.69-11.4-2.46-2.95-6.29-4.42-11.48-4.42s-9.34,1.6-12.29,4.79c-2.95,3.19-4.42,7.68-4.42,13.47v13.14c0,5.79,1.47,10.28,4.42,13.47,2.95,3.19,7.05,4.79,12.29,4.79s9.02-1.47,11.48-4.42c2.46-2.95,3.69-6.75,3.69-11.4v-1.22h5.19v1.06c0,6.38-1.75,11.43-5.23,15.13-3.49,3.71-8.53,5.56-15.13,5.56h0ZM461.69,544.01v-56.8h10.3l23.21,53.71h.97v-53.71h5.19v56.8h-10.3l-23.21-53.79h-.97v53.79h-5.19ZM399.15,544.01v-56.8h34.32v4.71h-29.13v21.26h26.86v4.71h-26.86v21.42h29.45v4.71h-34.65,0ZM403.28,482.5l10.71-9.57h5.68l10.71,9.57h-6.57l-6.49-6.17h-.97l-6.49,6.17h-6.57ZM348.93,545.14c-4.33,0-8.11-.88-11.36-2.64-3.25-1.76-5.76-4.35-7.55-7.79-1.79-3.43-2.68-7.67-2.68-12.7v-12.82c0-7.57,1.99-13.32,5.96-17.24,3.98-3.92,9.29-5.88,15.94-5.88s11.59,1.84,14.97,5.52c3.38,3.68,5.07,8.57,5.07,14.69v.41h-5.19v-.57c0-2.98-.51-5.61-1.54-7.91-1.03-2.3-2.64-4.11-4.83-5.44-2.19-1.33-5.02-1.99-8.48-1.99-5.25,0-9.34,1.6-12.29,4.79-2.95,3.19-4.42,7.68-4.42,13.47v13.14c0,5.79,1.47,10.28,4.42,13.47,2.95,3.19,7.05,4.79,12.29,4.79s8.92-1.49,11.36-4.46c2.43-2.98,3.65-6.98,3.65-12.01v-1.62h-18.74v-4.54h23.77v26.21h-4.71v-6.41h-.97c-.65,1.3-1.57,2.53-2.76,3.69-1.19,1.16-2.75,2.1-4.67,2.8-1.92.7-4.34,1.06-7.26,1.06h0ZM293.45,544.01v-56.8h5.19v56.8h-5.19ZM232.52,544.01v-56.8h5.19v52.09h29.86v4.71h-35.05ZM169.98,544.01v-56.8h34.32v4.71h-29.13v21.26h26.86v4.71h-26.86v21.42h29.45v4.71h-34.65ZM120.01,544.01v-52.09h-18.99v-4.71h43.17v4.71h-18.99v52.09h-5.19ZM35.56,544.01v-56.8h10.3l23.21,53.71h.97v-53.71h5.19v56.8h-10.3l-23.21-53.79h-.97v53.79h-5.19Z" fill="#baa072"/>
    <path d="M1569.56,247.53c-5.04-50.02,8.57-100.55,38.11-141.23,35.79-49.29,91.15-82.05,149.64-96.85,79.83-19.84,167.7-6.98,237.57,36.75,51.08,32.79,88.84,86.47,99.58,146.48,6.99,39.81,1.78,79.07-13.67,116.3-39.7,93.33-140.65,142.28-238.1,145.39-67.82,2.17-135.2-16.86-188.87-59.1-18.04-14.27-34.39-30.82-47.72-49.61-20.84-29.58-32.69-62.21-36.52-98.14h0ZM1991.98,370.88c61.96-76.13,66.99-192.47,10.81-273.05-49.45-70.45-134.76-95.19-217.09-78.92-81.88,17.06-136.05,70.04-154.75,151.7-24.54,112.11,20.6,228.82,138.63,260.43,80.74,21.42,166.14,4.53,222.4-60.16h0Z" fill="#fefefe"/>
    <path d="M701.28,25.66c66.25.18,155.83,27.74,156.11,108.7.07,21.11-6.43,41.32-18.71,58.48-7.52,10.08-16.46,17.93-27.12,24.55-22.05,13.19-51.42,21.07-76.52,26.36-1.9.4-3.8.77-5.71,1.12l156.65,173.75c-20.26.03-40.52.05-60.77-.01l-148.29-169.97c-35.85.05-71.69.12-107.53-.08-.09,56.65.57,113.5.3,170.09-15.49-.02-30.98.03-46.47-.03-.11-107.39.13-214.72.19-322.1.01-23.79-.15-47.55-.7-71.33l178.58.48h0ZM569.45,39.66c.06,65.04-.13,130.07,0,195.12,40.07.13,81.78,1.02,121.69-.21,61.76-2.79,119.1-31.98,115.96-102.29-1.87-41.84-27.83-72.31-67.12-85.02-32.82-10.1-72.46-8.05-106.64-8.02-21.3-.02-42.58.1-63.88.42h0Z" fill="#fefefe"/>
    <path d="M198.28,25.58c11.33-.48,22.68-.7,34.02-.52l195.09,393.54c-17.52-.14-35.04-.2-52.56.05-24.08-48.63-47.07-98.79-72.32-146.67-92.58-13.19-176.77,6.75-231.54,44.07l-52.62,102.56c-.07.13-16.77.01-18.49.02C66.84,287.94,132.72,156.98,198.28,25.58h0ZM89.9,277.51c-6.69,12.99-5.97,9.14,6.18,3.1,64.07-30.06,124.87-34.66,194.46-28.34,3.95.37,3.65,1.11,1-4-31.84-61.19-60.97-124.18-92.84-185.61-36.64,71.43-72.01,143.5-108.8,214.86h0Z" fill="#fefefe"/>
    <path d="M1306.93,438.57c-42.41,13.21-77.98,18.57-122.52,14.19-65.29-6.7-123.14-33.99-167.2-83.1-11.88-13.24-24.47-33.77-31.93-49.98-40.95-89.61-11.21-186.23,59.1-251.2,57.4-53.03,136.88-75.82,213.89-66.09,19.04,2.41,37.37,6.66,55.59,12.69,1.7.57,3.39,1.15,5.08,1.74,113.7,41.64,183.16,151.05,146.98,271.26-23.25,77.23-84.23,124.31-157.97,150.14l-1.02.35h0ZM1360.34,70.72c-50.59-51.29-127.32-67.01-195.79-47.96-30.66,8.53-56.35,23.76-79.39,45.59-72.18,72.07-81.86,196.99-31.14,283.43,38.5,65.62,104.03,92.07,178.03,88.13,56.76-3.3,110.28-27.21,144.88-73.27,8.07-10.74,14.63-21.94,20.37-34.08,35.06-74.78,30.16-170.68-17.87-238.77-5.85-8.24-12.12-15.77-19.09-23.08h0Z" fill="#fefefe"/>
    <path d="M1252.19,415.93c-3.69.42,4.98-2.81,5.44-3.01,54.39-24.11,94.57-67.27,113.78-123.75,21.1-62.05,10.32-129.03-25.37-183.42l-.6-.91c-21.78-33-51.18-51.57-85.89-68.7-16.7-8.24,21.87,6.26,23.15,6.85,107.51,50.12,146.39,170.86,100.52,277.94-23.62,54.15-68.72,85.9-126.66,94.44l-1.11.14-2.13.27-1.13.13Z" fill="#baa072"/>
    <path d="M1433.92,448.43c19.71,32.24,45.73,64.57,82.83,76.95l-102.64.11c-15.03-15.42-29.66-31.88-45.4-46.5-25.95-24.1-48.39-21.21-83-21-5.64,0-11.27,0-16.91-.02l.04-9.29c54.67-.08,109.34-.17,164.01-.25h1.07Z" fill="#fefefe"/>
  </g>
</svg>