<?xml version="1.0" encoding="UTF-8"?>
<!DOCTYPE svg PUBLIC "-//W3C//DTD SVG 1.1//EN" "http://www.w3.org/Graphics/SVG/1.1/DTD/svg11.dtd">
<!-- Creator: CorelDRAW -->
<svg xmlns="http://www.w3.org/2000/svg" xml:space="preserve" width="800mm" height="250mm" version="1.1" style="shape-rendering:geometricPrecision; text-rendering:geometricPrecision; image-rendering:optimizeQuality; fill-rule:evenodd; clip-rule:evenodd"
viewBox="0 0 80000 25000"
 xmlns:xlink="http://www.w3.org/1999/xlink"
 xmlns:xodm="http://www.corel.com/coreldraw/odm/2003">
 <defs>
  <style type="text/css">
   <![CDATA[
    .fil0 {fill:black;fill-rule:nonzero}
    .fil1 {fill:#BAA072;fill-rule:nonzero}
    .fil2 {fill:#BAA072;fill-rule:nonzero}
   ]]>
  </style>
 </defs>
 <g id="Camada_x0020_1">
  <metadata id="CorelCorpID_0Corel-Layer"/>
  <g id="_1406229630992">
   <path class="fil0" d="M58370.54 10067.01c-177.9,-1764.65 302.49,-3547.33 1344.31,-4982.19 1262.63,-1738.97 3215.4,-2894.46 5278.8,-3416.8 2816.23,-700.07 5915.96,-246.1 8380.82,1296.58 1802.05,1156.65 3134,3050.32 3512.85,5167.5 246.69,1404.4 62.65,2789.29 -482.12,4102.71 -1400.46,3292.39 -4961.66,5019.28 -8399.73,5129.21 -2392.69,76.5 -4769.53,-594.93 -6663.09,-2084.89 -636.56,-503.46 -1213.28,-1087.33 -1683.35,-1750.1 -735.26,-1043.44 -1153.13,-2194.53 -1288.49,-3462.02zm14902 4351.41c2185.79,-2685.87 2363.13,-6789.78 381.48,-9632.6 -1744.64,-2485.29 -4754.13,-3358.05 -7658.48,-2784.11 -2888.55,601.87 -4799.61,2470.74 -5459.28,5351.5 -865.65,3954.98 726.73,8072.09 4890.55,9187.43 2848.35,755.65 5861.15,159.66 7845.73,-2122.22z"/>
   <path class="fil0" d="M27739.69 2240.02c2337.03,6.31 5497.28,978.43 5507.14,3834.85 2.57,744.69 -226.72,1457.79 -659.88,2062.97 -265.43,355.46 -580.56,632.59 -956.7,866.14 -777.98,465.25 -1813.88,743.22 -2699.4,929.79 -67.13,14.12 -134.12,27.05 -201.61,39.48 5526.24,6129.41 0,0 5526.24,6129.41 -714.69,1.16 -1429.31,1.86 -2143.92,-0.46 -5231.32,-5996.13 0,0 -5231.32,-5996.13 -1264.64,1.62 -2529.1,4.23 -3793.53,-2.74 -3.13,1998.59 20.25,4004.15 10.67,6000.28 -546.57,-0.71 -1092.82,0.91 -1639.4,-0.95 -3.76,-3788.64 4.51,-7574.88 6.73,-11363.12 0.49,-839.27 -5.32,-1677.41 -24.83,-2516.5 6299.81,16.98 0,0 6299.81,16.98zm-4650.9 493.81c2.11,2294.35 -4.65,4588.7 -0.21,6883.33 1413.73,4.68 2884.95,35.89 4293.11,-7.4 2178.86,-98.55 4201.72,-1128.33 4090.7,-3608.58 -66.08,-1476.11 -981.91,-2551.04 -2367.96,-2999.31 -1157.67,-356.3 -2556.26,-284.03 -3762.08,-282.97 -751.39,-0.53 -1502.24,3.63 -2253.56,14.93z"/>
   <path class="fil0" d="M9994.87 2236.99c399.77,-16.94 800.06,-24.62 1200.29,-18.35 6882.34,13883.31 0,0 6882.34,13883.31 -618.07,-5.11 -1236.07,-7.18 -1854.15,1.66 -849.33,-1715.69 -1660.39,-3485.06 -2551.36,-5174.3 -3265.87,-465.28 -6235.88,238.03 -8168.36,1554.66 -1856.22,3618.23 0,0 -1856.22,3618.23 -2.43,4.75 -591.66,0.39 -652.41,0.7 2363.06,-4610.36 4687.17,-9230.37 6999.87,-13865.91l0 0zm-3823.29 8887.73c-236.16,458.1 -210.56,322.28 218.13,109.19 2260.22,-1060.56 4404.98,-1222.58 6860.01,-999.88 139.23,12.96 128.91,39.06 35.18,-141.06 -1123.32,-2158.81 -2150.85,-4380.92 -3275.2,-6547.87 -1292.75,2520.01 -2540.3,5062.46 -3838.12,7579.62z"/>
   <path class="fil0" d="M49105.69 16806.49c-1496.05,465.92 -2750.82,654.99 -4322.31,500.69 -2303.26,-236.33 -4344.12,-1199.1 -5898.29,-2931.72 -419.01,-467.12 -863.1,-1191.41 -1126.47,-1763.07 -1444.57,-3161.36 -395.39,-6569.92 2084.83,-8861.68 2024.78,-1870.94 4828.99,-2674.9 7545.61,-2331.41 671.8,84.94 1318.42,234.96 1961.08,447.68 59.98,20.01 119.54,40.58 179.17,61.51 4011.01,1469.09 6461.42,5328.86 5184.97,9569.31 -820.14,2724.58 -2971.5,4385.22 -5572.76,5296.44l-35.83 12.25zm1884.06 -12976.83c-1784.55,-1809.38 -4491.39,-2363.85 -6907.11,-1691.81 -1081.45,300.86 -1987.74,838.06 -2800.56,1608.29 -2546.2,2542.31 -2887.91,6949.27 -1098.53,9998.65 1358.35,2314.84 3670.11,3248.01 6280.54,3109.18 2002.24,-116.56 3890.53,-959.91 5110.89,-2584.88 284.55,-378.9 516.23,-774.03 718.61,-1202.13 1236.85,-2638.19 1064.15,-6021.28 -630.27,-8423.14 -206.32,-290.54 -427.65,-556.41 -673.57,-814.16z"/>
   <path class="fil1" d="M47174.41 16007.73c-130.04,14.94 175.72,-99.18 191.96,-106.16 1918.64,-850.46 3336.39,-2373.31 4013.81,-4365.56 744.27,-2188.86 364.23,-4551.75 -894.92,-6470.64l-21.03 -32.01c-768.47,-1164.08 -1805.61,-1819.21 -3030.06,-2423.51 -589.19,-290.76 771.64,220.77 816.55,241.69 3792.86,1767.96 5164.43,6027.51 3545.99,9805.15 -833.21,1910.4 -2424.42,3030.45 -4468.17,3331.78l-39.13 5.07 -75.09 9.47 -39.91 4.72z"/>
   <path class="fil0" d="M53585.44 17154.41c695.35,1137.49 1613.29,2277.73 2921.96,2714.51 -3620.76,3.91 0,0 -3620.76,3.91 -530.3,-543.81 -1046.21,-1124.6 -1601.49,-1640.31 -915.6,-850.37 -1706.95,-748.29 -2928.08,-740.77 -198.86,-0.05 -397.72,-0.29 -596.58,-0.66 1.35,-327.78 0,0 1.35,-327.78 1928.62,-2.95 3857.24,-5.9 5785.86,-8.84l37.74 -0.06z"/>
   <polygon class="fil2" points="3087.71,23568.54 3087.71,18564.35 3545.24,18564.35 3545.24,23568.54 "/>
   <polygon id="_1" class="fil2" points="6188.19,23568.54 6188.19,18564.35 7096.09,18564.35 9140.66,23296.88 9226.45,23296.88 9226.45,18564.35 9683.97,18564.35 9683.97,23568.54 8776.07,23568.54 6731.5,18828.86 6645.72,18828.86 6645.72,23568.54 "/>
   <path id="_2" class="fil2" d="M14099.83 23668.62c-586.2,0 -1054.45,-172.76 -1404.74,-518.29 -350.3,-345.52 -525.44,-851.9 -525.44,-1519.13l0 -1129.51c0,-667.23 175.14,-1173.6 525.44,-1519.13 350.29,-345.53 818.54,-518.29 1404.74,-518.29 581.44,0 1025.86,163.23 1333.26,489.69 307.4,326.47 461.1,770.89 461.1,1333.26l0 35.75 -457.52 0 0 -50.05c0,-409.86 -108.43,-744.67 -325.28,-1004.41 -216.84,-259.74 -554.03,-389.61 -1011.56,-389.61 -462.29,0 -823.31,140.59 -1083.05,421.78 -259.74,281.19 -389.61,676.76 -389.61,1186.71l0 1158.11c0,509.95 129.87,905.52 389.61,1186.71 259.74,281.19 620.76,421.78 1083.05,421.78 457.53,0 794.72,-129.87 1011.56,-389.61 216.85,-259.74 325.28,-594.55 325.28,-1004.41l0 -107.24 457.52 0 0 92.94c0,562.37 -153.7,1006.79 -461.1,1333.26 -307.4,326.46 -751.82,489.69 -1333.26,489.69z"/>
   <path id="_3" class="fil2" d="M20088.44 23668.62c-586.2,0 -1053.26,-172.76 -1401.17,-518.29 -347.91,-345.52 -521.86,-851.9 -521.86,-1519.13l0 -1129.51c0,-667.23 173.95,-1173.6 521.86,-1519.13 347.91,-345.53 814.97,-518.29 1401.17,-518.29 586.21,0 1053.27,172.76 1401.18,518.29 347.91,345.53 521.86,851.9 521.86,1519.13l0 1129.51c0,667.23 -173.95,1173.61 -521.86,1519.13 -347.91,345.53 -814.97,518.29 -1401.18,518.29zm0 -414.63c467.06,0 828.08,-140.59 1083.05,-421.78 254.98,-281.19 382.47,-676.76 382.47,-1186.71l0 -1158.11c0,-509.95 -127.49,-905.52 -382.47,-1186.71 -254.97,-281.19 -615.99,-421.78 -1083.05,-421.78 -462.29,0 -822.11,140.59 -1079.47,421.78 -257.36,281.19 -386.04,676.76 -386.04,1186.71l0 1158.11c0,509.95 128.68,905.52 386.04,1186.71 257.36,281.19 617.18,421.78 1079.47,421.78z"/>
   <path id="_4" class="fil2" d="M24497.16 23568.54l0 -5004.19 1958.78 0c309.79,0 582.63,52.43 818.54,157.28 235.92,104.85 421.79,256.16 557.61,453.95 135.83,197.78 203.75,437.27 203.75,718.46l0 71.48c0,338.38 -81.02,604.08 -243.06,797.1 -162.04,193.02 -352.68,320.51 -571.91,382.46l0 85.79c166.8,4.77 307.4,57.19 421.78,157.27 114.38,100.09 171.57,259.74 171.57,478.98l0 1701.42 -457.52 0 0 -1651.38c0,-152.51 -41.71,-269.28 -125.11,-350.3 -83.4,-81.02 -208.51,-121.53 -375.31,-121.53l-1901.59 0 0 2123.21 -457.53 0zm457.53 -2537.84l1458.36 0c371.74,0 658.88,-86.98 861.43,-260.93 202.56,-173.96 303.83,-422.97 303.83,-747.05l0 -35.75c0,-324.08 -98.89,-573.1 -296.68,-747.05 -197.78,-173.96 -487.31,-260.94 -868.58,-260.94l-1458.36 0 0 2051.72z"/>
   <path id="_5" class="fil2" d="M30421.43 23568.54l0 -5004.19 1851.55 0c295.49,0 561.18,56 797.1,168 235.91,112 422.97,272.85 561.18,482.55 138.21,209.7 207.32,464.67 207.32,764.92l0 85.79c0,300.25 -70.3,556.42 -210.9,768.5 -140.59,212.08 -328.84,372.93 -564.75,482.55 -235.92,109.61 -499.23,164.42 -789.95,164.42l-1394.02 0 0 2087.46 -457.53 0zm457.53 -2502.09l1343.98 0c357.44,0 639.82,-88.17 847.14,-264.51 207.31,-176.34 310.97,-424.17 310.97,-743.48l0 -71.49c0,-324.08 -101.28,-573.1 -303.83,-747.05 -202.55,-173.96 -487.31,-260.94 -854.28,-260.94l-1343.98 0 0 2087.47z"/>
  </g>
 </g>
</svg>
